<svg width="220" height="220" viewBox="0 0 212 212" fill="none" xmlns="http://www.w3.org/2000/svg">
<path d="M89.9385 146.324C86.7535 143.017 82.6336 140.575 77.9199 139.445L60.8842 135.363L60.8771 135.374L60.8842 135.363V124.963H40.0808V135.396L23.0894 139.455C11.9788 142.11 4.14062 152.04 4.14062 163.463V191.297H41.8046L89.9385 146.324Z" fill="#78D2FA"/>
<path d="M61.3309 124.963V135.644L50.5347 161.504L39.75 135.68V124.963H61.3309Z" fill="#FFB487"/>
<path d="M73.6848 89.1315V103.537C73.6848 116.343 63.303 126.724 50.4964 126.724C37.6899 126.724 27.3081 116.343 27.3081 103.537V89.1315H73.6848Z" fill="#FFCDAC"/>
<path d="M73.6848 93.6882V88.1063C73.6848 75.3001 63.303 64.9188 50.4964 64.9188C37.6899 64.9188 27.3081 75.3001 27.3081 88.1063V93.6882H43.2922C53.3017 93.6882 63.1237 90.9707 71.7097 85.826" fill="#878791"/>
<path d="M122.062 146.324C125.246 143.017 129.366 140.575 134.08 139.445L151.116 135.363L151.123 135.374L151.116 135.363V124.963H171.919V135.396L188.911 139.455C200.021 142.11 207.859 152.04 207.859 163.463V191.297H170.195L122.062 146.324Z" fill="#A5DC69"/>
<path d="M91.4885 145.917L67.7602 151.603C52.2958 155.309 41.3906 169.135 41.3906 185.037V207.859H170.524V185.057C170.524 169.146 159.607 155.314 144.131 151.617L120.465 145.963L91.4885 145.917Z" fill="#FF5A5A"/>
<path d="M172.25 124.963V135.68L161.465 161.504L150.669 135.644V124.963H172.25Z" fill="#FFB487"/>
<path d="M106.004 179.181L121.453 144.106C120.306 142.181 119.653 139.94 119.653 137.567V134.196H92.3386V137.568C92.3386 139.936 91.6877 142.174 90.5444 144.097L106.004 179.181Z" fill="#FFB487"/>
<path d="M138.297 79.3033V101.588C138.297 119.425 123.837 133.885 106 133.885C88.1635 133.885 73.7036 119.425 73.7036 101.588V79.3033H138.297Z" fill="#FFCDAC"/>
<path d="M106 47.7981C88.1625 47.7981 73.7026 62.258 73.7026 80.095V87.8699H89.4937C99.9906 87.8699 109.949 83.222 116.691 75.1764L138.296 87.8699V80.095C138.297 62.258 123.837 47.7981 106 47.7981Z" fill="#F5B955"/>
<path d="M138.315 89.1315V103.537C138.315 116.343 148.697 126.724 161.504 126.724C174.31 126.724 184.692 116.343 184.692 103.537V89.1315H138.315Z" fill="#FFCDAC"/>
<path d="M138.315 93.6882V88.1063C138.315 75.3001 148.697 64.9188 161.504 64.9188C174.31 64.9188 184.692 75.3001 184.692 88.1063V93.6882H168.708C158.698 93.6882 148.877 90.9707 140.291 85.826" fill="#878791"/>
<path d="M105.893 203.719C104.803 203.719 103.735 204.162 102.965 204.932C102.195 205.702 101.752 206.77 101.752 207.859C101.752 208.948 102.195 210.017 102.965 210.787C103.735 211.557 104.803 212 105.893 212C106.982 212 108.05 211.557 108.82 210.787C109.59 210.017 110.033 208.948 110.033 207.859C110.033 206.77 109.59 205.702 108.82 204.932C108.05 204.162 106.982 203.719 105.893 203.719Z" fill="black"/>
<path d="M189.872 135.428L176.06 132.128V126.649C183.727 121.804 188.833 113.258 188.833 103.537V88.1063C188.833 73.0373 176.574 60.7782 161.504 60.7782C153.375 60.7782 146.068 64.3499 141.058 70.0014C136.67 54.8041 122.634 43.6575 106.043 43.6575H106.043C89.4247 43.6575 75.3701 54.8393 71.0063 70.0739C65.9945 64.3805 58.6606 60.7782 50.497 60.7782C35.4276 60.7782 23.168 73.0377 23.168 88.1063V103.537C23.168 113.258 28.2743 121.804 35.941 126.649V132.128L22.1287 135.428C9.09944 138.54 0 150.069 0 163.463V191.297C0 193.584 1.85417 195.437 4.14062 195.437H37.2503V207.859C37.2503 210.146 39.1045 212 41.3909 212H86.8152C89.1017 212 90.9559 210.146 90.9559 207.859C90.9559 205.572 89.1017 203.719 86.8152 203.719H68.3303V185.495C68.3303 183.208 66.4761 181.354 64.1896 181.354C61.9032 181.354 60.049 183.208 60.049 185.495V203.719H45.5311V185.037C45.5311 170.995 55.0687 158.902 68.7249 155.63L89.0897 150.749L102.193 180.56C102.854 182.064 104.341 183.035 105.983 183.035H105.983C107.626 183.035 109.113 182.064 109.774 180.561L122.864 150.793L143.17 155.644C156.838 158.909 166.384 171.004 166.384 185.057V189.677C166.172 190.175 166.055 190.722 166.055 191.296C166.055 191.871 166.172 192.419 166.384 192.916V203.719H151.951V185.495C151.951 183.208 150.097 181.354 147.81 181.354C145.524 181.354 143.67 183.208 143.67 185.495V203.719H123.391C121.105 203.719 119.25 205.572 119.25 207.859C119.25 210.146 121.105 212 123.391 212H170.525C172.811 212 174.665 210.146 174.665 207.859V195.437H207.859C210.146 195.437 212 193.584 212 191.297V163.463C212 150.069 202.901 138.54 189.872 135.428ZM167.788 135.62L161.466 150.758L155.23 135.819C155.246 135.669 155.258 135.518 155.258 135.366C155.258 135.328 155.258 135.289 155.256 135.25V130.137C157.265 130.608 159.354 130.865 161.504 130.865C163.663 130.865 165.762 130.606 167.779 130.13V135.396C167.779 135.471 167.784 135.545 167.788 135.62ZM87.3477 138.946C84.7482 137.334 81.8962 136.14 78.8851 135.419L65.0248 132.098V126.667C68.4719 124.495 71.3997 121.575 73.5822 118.135C76.7038 124.233 81.495 129.34 87.3477 132.853V138.946ZM77.8852 101.588V92.0109H89.536C100.105 92.0109 110.121 87.8338 117.521 80.4416L134.175 90.2255V102.56C133.66 117.636 121.243 129.745 106.043 129.745C90.5161 129.744 77.8852 117.113 77.8852 101.588ZM124.605 132.931C130.494 129.43 135.319 124.319 138.465 118.207C140.643 121.616 143.553 124.509 146.975 126.667V132.098L133.115 135.419C130.086 136.145 127.217 137.349 124.605 138.976V132.931H124.605ZM161.504 122.584C151.001 122.584 142.456 114.039 142.456 103.537V102.861C142.471 102.439 142.481 91.7281 142.481 91.7281C150.621 95.7312 159.595 97.8293 168.709 97.8293H180.552V103.538C180.552 114.04 172.007 122.584 161.504 122.584ZM161.504 69.0594C172.007 69.0594 180.552 77.604 180.552 88.1063V89.1315V89.5476H168.708C159.762 89.5476 150.971 87.1987 143.223 82.7462C145.545 74.8451 152.861 69.0594 161.504 69.0594ZM77.8852 80.0954C77.8852 64.5697 90.5165 51.9392 106.043 51.9392C121.568 51.9392 134.2 64.5701 134.2 80.0954V80.6354L118.832 71.6067C117.088 70.5819 114.86 70.9674 113.561 72.5172C107.59 79.6424 98.8334 83.7292 89.5365 83.7292H77.8852V80.0954ZM31.4485 88.1063C31.4485 77.6036 39.9935 69.0594 50.4962 69.0594C59.1389 69.0594 66.4554 74.8451 68.7762 82.7467C61.0287 87.1987 52.2381 89.548 43.2915 89.548H31.4485V89.1319V88.1063ZM31.4485 97.8289H43.2919C52.4145 97.8289 61.3976 95.7271 69.5439 91.7161V103.537C69.5439 114.04 60.9989 122.584 50.4962 122.584C39.9935 122.584 31.4485 114.039 31.4485 103.537V97.8289ZM50.4962 130.865C52.646 130.865 54.7353 130.608 56.7435 130.137V135.134C56.739 135.212 56.7369 135.29 56.7369 135.368C56.7369 135.498 56.7493 135.628 56.7618 135.757L50.497 150.758L44.2086 135.694C44.2157 135.596 44.2215 135.497 44.2215 135.396V130.13C46.2375 130.606 48.3368 130.865 50.4962 130.865ZM37.2503 185.037V187.156H24.8438V168.76C24.8438 166.473 22.9896 164.619 20.7031 164.619C18.4167 164.619 16.5625 166.473 16.5625 168.76V187.156H8.28125V163.463C8.28125 153.917 14.7663 145.701 24.0516 143.483L37.1766 140.347L45.7427 160.866C40.3852 167.521 37.2503 175.958 37.2503 185.037ZM66.7953 147.576C64.3503 148.162 62.0137 148.978 59.7952 149.983L63.8281 140.326L76.9552 143.472C77.9734 143.716 78.9654 144.038 79.9257 144.43L66.7953 147.576ZM105.984 168.606L95.629 145.047V136.507C98.9299 137.494 102.425 138.026 106.042 138.026C109.611 138.026 113.062 137.507 116.324 136.546V145.093L105.984 168.606ZM131.999 144.461C132.982 144.056 134 143.722 135.045 143.472L148.14 140.334L152.189 150.034C149.942 149.01 147.574 148.183 145.093 147.59L131.999 144.461ZM203.719 187.156H195.438V168.76C195.438 166.473 193.583 164.619 191.297 164.619C189.01 164.619 187.156 166.473 187.156 168.76V187.156H174.665V185.057C174.665 175.989 171.541 167.565 166.198 160.915L174.792 140.339L187.948 143.483C197.234 145.701 203.719 153.917 203.719 163.463V187.156Z" fill="black"/>
<path d="M92.1123 95.752C91.0233 95.752 89.955 96.195 89.1849 96.9652C88.4147 97.7353 87.9717 98.8036 87.9717 99.8926C87.9717 100.982 88.4143 102.05 89.1849 102.82C89.9555 103.59 91.0233 104.033 92.1123 104.033C93.2054 104.033 94.2696 103.59 95.0393 102.82C95.8136 102.05 96.2529 100.982 96.2529 99.8926C96.2529 98.8036 95.8136 97.7353 95.0393 96.9652C94.2696 96.195 93.2013 95.752 92.1123 95.752Z" fill="black"/>
<path d="M119.801 104.033C120.89 104.033 121.958 103.59 122.728 102.82C123.502 102.05 123.941 100.982 123.941 99.8926C123.941 98.8036 123.502 97.7353 122.728 96.9652C121.958 96.195 120.89 95.752 119.801 95.752C118.712 95.752 117.644 96.195 116.873 96.9652C116.103 97.7353 115.66 98.8036 115.66 99.8926C115.66 100.982 116.103 102.05 116.873 102.82C117.644 103.59 118.712 104.033 119.801 104.033Z" fill="black"/>
<path d="M113.97 110.903C112.352 109.286 109.731 109.286 108.114 110.903C106.889 112.128 104.897 112.128 103.673 110.903C102.055 109.286 99.4344 109.286 97.8167 110.903C96.1998 112.52 96.1998 115.142 97.8167 116.759C100.044 118.986 102.968 120.099 105.893 120.099C108.818 120.099 111.742 118.986 113.969 116.759C115.587 115.142 115.587 112.52 113.97 110.903Z" fill="black"/>
<path d="M168.366 30.6406H171.206C173.493 30.6406 175.347 28.7869 175.347 26.5C175.347 24.2131 173.493 22.3594 171.206 22.3594H168.366C166.08 22.3594 164.226 24.2131 164.226 26.5C164.226 28.7869 166.08 30.6406 168.366 30.6406Z" fill="black"/>
<path d="M188.457 30.6406H191.297C193.583 30.6406 195.437 28.7869 195.437 26.5C195.437 24.2131 193.583 22.3594 191.297 22.3594H188.457C186.17 22.3594 184.316 24.2131 184.316 26.5C184.316 28.7869 186.17 30.6406 188.457 30.6406Z" fill="black"/>
<path d="M179.832 42.106C182.118 42.106 183.973 40.2523 183.973 37.9654V35.1253C183.973 32.8385 182.118 30.9847 179.832 30.9847C177.546 30.9847 175.691 32.8385 175.691 35.1253V37.9654C175.691 40.2523 177.545 42.106 179.832 42.106Z" fill="black"/>
<path d="M179.832 22.0153C182.118 22.0153 183.973 20.1615 183.973 17.8746V15.0346C183.973 12.7477 182.118 10.894 179.832 10.894C177.546 10.894 175.691 12.7477 175.691 15.0346V17.8746C175.691 20.1615 177.545 22.0153 179.832 22.0153Z" fill="black"/>
<path d="M20.4727 30.6406H23.3123C25.5987 30.6406 27.4529 28.7869 27.4529 26.5C27.4529 24.2131 25.5987 22.3594 23.3123 22.3594H20.4727C18.1862 22.3594 16.332 24.2131 16.332 26.5C16.332 28.7869 18.1862 30.6406 20.4727 30.6406Z" fill="black"/>
<path d="M40.5635 30.6406H43.4031C45.6896 30.6406 47.5437 28.7869 47.5437 26.5C47.5437 24.2131 45.6896 22.3594 43.4031 22.3594H40.5635C38.277 22.3594 36.4229 24.2131 36.4229 26.5C36.4229 28.7869 38.2766 30.6406 40.5635 30.6406Z" fill="black"/>
<path d="M31.9385 42.106C34.2249 42.106 36.0791 40.2523 36.0791 37.9654V35.1253C36.0791 32.8385 34.2249 30.9847 31.9385 30.9847C29.652 30.9847 27.7979 32.8385 27.7979 35.1253V37.9654C27.7979 40.2523 29.6516 42.106 31.9385 42.106Z" fill="black"/>
<path d="M31.9385 22.0153C34.2249 22.0153 36.0791 20.1615 36.0791 17.8746V15.0346C36.0791 12.7477 34.2249 10.894 31.9385 10.894C29.652 10.894 27.7979 12.7477 27.7979 15.0346V17.8746C27.7979 20.1615 29.6516 22.0153 31.9385 22.0153Z" fill="black"/>
<path d="M106 34.9456C108.286 34.9456 110.141 33.0919 110.141 30.805V19.911C110.141 17.6241 108.286 15.7704 106 15.7704C103.714 15.7704 101.859 17.6241 101.859 19.911V30.805C101.859 33.0919 103.714 34.9456 106 34.9456Z" fill="black"/>
<path d="M106 8.28125C107.089 8.28125 108.157 7.8382 108.927 7.06805C109.698 6.29789 110.141 5.22961 110.141 4.14062C110.141 3.05164 109.698 1.98336 108.927 1.2132C108.157 0.443047 107.089 0 106 0C104.911 0 103.843 0.443047 103.073 1.2132C102.302 1.98336 101.859 3.05164 101.859 4.14062C101.859 5.22961 102.302 6.29789 103.073 7.06805C103.843 7.8382 104.911 8.28125 106 8.28125Z" fill="black"/>
<path d="M85.6333 22.4679C86.442 23.2765 87.5016 23.6806 88.5612 23.6806C89.6208 23.6806 90.6803 23.2765 91.489 22.4679C93.1059 20.8509 93.1059 18.2291 91.489 16.6118L85.4296 10.5524C83.8123 8.93546 81.1913 8.93546 79.5735 10.5524C77.9566 12.1693 77.9566 14.7911 79.5735 16.4085L85.6333 22.4679Z" fill="black"/>
<path d="M123.236 23.6554C124.296 23.6554 125.355 23.2513 126.163 22.4426L132.425 16.1807C134.042 14.5638 134.042 11.942 132.425 10.3247C130.808 8.70774 128.187 8.70774 126.569 10.3247L120.307 16.5865C118.69 18.2034 118.69 20.8253 120.307 22.4426C121.116 23.2513 122.176 23.6554 123.236 23.6554Z" fill="black"/>
</svg>
