<svg width="220" height="220" viewBox="0 0 226 231" fill="none" xmlns="http://www.w3.org/2000/svg">
<path d="M170.442 18.7745C145.653 18.7745 125.558 39.3141 125.558 64.6506V132.176H215.325V64.6511C215.325 39.3141 195.23 18.7745 170.442 18.7745Z" fill="#784033"/>
<path d="M170.442 18.7745C166.818 18.7745 163.295 19.2167 159.92 20.0455C179.631 24.8857 194.282 43.0183 194.282 64.6511V132.177H215.325V64.6511C215.325 39.3141 195.23 18.7745 170.442 18.7745Z" fill="#61362B"/>
<path d="M221.275 149.108H119.608C118.811 149.108 118.165 148.448 118.165 147.633C118.165 123.19 137.551 103.375 161.464 103.375H179.418C203.332 103.375 222.718 123.19 222.718 147.633C222.719 148.448 222.072 149.108 221.275 149.108Z" fill="#EAAADD"/>
<path d="M179.419 103.375H161.465C161.268 103.375 161.073 103.38 160.877 103.383C184.52 103.705 203.589 123.391 203.589 147.633C203.589 148.448 202.943 149.108 202.146 149.108H221.275C222.073 149.108 222.719 148.448 222.719 147.633C222.719 123.19 203.333 103.375 179.419 103.375Z" fill="#E490D0"/>
<path d="M170.442 126.241C159.877 126.241 151.312 117.487 151.312 106.689V79.6263H189.571V106.689C189.571 117.487 181.007 126.241 170.442 126.241Z" fill="#FFCBBE"/>
<path d="M179.584 79.6264V106.689C179.584 115.722 173.59 123.319 165.448 125.564C167.04 126.003 168.713 126.242 170.441 126.242C181.006 126.242 189.571 117.487 189.571 106.689V79.626H179.584V79.6264Z" fill="#EAAC9D"/>
<path d="M63.7129 26.3052H47.4039C36.8481 26.3052 28.2905 35.0516 28.2905 45.8414V60.1828H82.8263V45.8414C82.8263 35.052 74.2692 26.3052 63.7129 26.3052Z" fill="#784033"/>
<path d="M63.8805 26.3052H47.2372C47.0567 26.3052 46.8779 26.3137 46.6987 26.3192C56.9124 26.6115 65.1063 35.1599 65.1063 45.6704V60.1823H82.827V45.6704C82.8265 34.9753 74.344 26.3052 63.8805 26.3052Z" fill="#61362B"/>
<path d="M106.392 149.108H4.72514C3.92796 149.108 3.28174 148.448 3.28174 147.633C3.28174 123.19 22.6679 103.375 46.5819 103.375H64.5357C88.4497 103.375 107.836 123.19 107.836 147.633C107.835 148.448 107.189 149.108 106.392 149.108Z" fill="#5766CB"/>
<path d="M64.5358 103.375H46.5816C46.3852 103.375 46.1896 103.38 45.9937 103.383C69.6363 103.705 88.7059 123.391 88.7059 147.633C88.7059 148.448 88.0597 149.109 87.2625 149.109H106.392C107.189 149.109 107.836 148.448 107.836 147.633C107.836 123.19 88.4494 103.375 64.5358 103.375Z" fill="#3D4FC3"/>
<path d="M55.5584 126.683C44.9933 126.683 36.4287 117.929 36.4287 107.13V80.0677H74.688V107.13C74.688 117.929 66.1234 126.683 55.5584 126.683Z" fill="#E2A770"/>
<path d="M64.701 80.0673V107.13C64.701 116.162 58.7076 123.76 50.5649 126.006C52.1575 126.445 53.8305 126.683 55.5586 126.683C66.1236 126.683 74.6882 117.929 74.6882 107.13V80.0673H64.701Z" fill="#D5985C"/>
<path d="M88.1787 63.8602C86.4206 63.0138 84.5521 62.9272 82.8267 64.0483V55.5983C82.8267 49.4236 77.9293 44.4178 71.8882 44.4178H39.2294C33.1883 44.4178 28.2909 49.4236 28.2909 55.5983V64.0483C26.5655 62.9267 24.697 63.0138 22.9389 63.8602C19.9479 65.2999 18.4083 68.3882 20.791 73.5595C22.6471 77.588 26.1254 81.233 28.9857 81.9666C30.5783 89.2503 34.8418 95.7355 41.0321 99.9882L48.9563 105.432C52.9488 108.175 58.1684 108.175 62.1605 105.432L70.085 99.9878C76.2758 95.7346 80.5389 89.2499 82.1315 81.9662C84.9922 81.233 88.47 77.588 90.3262 73.559C92.7089 68.3886 91.1697 65.2999 88.1787 63.8602Z" fill="#E2A770"/>
<path d="M88.1786 63.8602C86.4205 63.0138 84.552 62.9272 82.8266 64.0483V55.5983C82.8266 49.4236 77.9292 44.4178 71.8881 44.4178H69.1086V75.5437C69.1086 85.3522 64.3317 94.5169 56.3674 99.9882L48.6997 105.256L48.9575 105.433C52.9496 108.176 58.1679 108.176 62.1599 105.433L70.085 99.9882C76.2757 95.735 80.5388 89.2504 82.1314 81.9666C84.9921 81.2335 88.47 77.5885 90.3261 73.5595C92.7088 68.3886 91.1696 65.2999 88.1786 63.8602Z" fill="#D5985C"/>
<path d="M163.834 212.225H62.1665C61.3694 212.225 60.7231 211.565 60.7231 210.75C60.7231 186.307 80.1093 166.492 104.023 166.492H121.977C145.891 166.492 165.277 186.307 165.277 210.75C165.277 211.565 164.631 212.225 163.834 212.225Z" fill="#B1E4F9"/>
<path d="M121.977 166.492H104.024C103.827 166.492 103.632 166.497 103.436 166.5C127.078 166.822 146.148 186.508 146.148 210.75C146.148 211.565 145.502 212.225 144.704 212.225H163.834C164.631 212.225 165.277 211.565 165.277 210.75C165.277 186.307 145.891 166.492 121.977 166.492Z" fill="#90D8F9"/>
<path d="M121.155 88.9814H104.846C94.29 88.9814 85.7324 97.7279 85.7324 108.518V122.859H140.268V108.518C140.268 97.7279 131.711 88.9814 121.155 88.9814Z" fill="#FFD064"/>
<path d="M121.322 88.9814H104.679C104.498 88.9814 104.32 88.99 104.14 88.9954C114.354 89.2878 122.548 97.8362 122.548 108.347V122.859H140.269V108.347C140.268 97.6512 131.786 88.9814 121.322 88.9814Z" fill="#FFC250"/>
<path d="M113 189.359C102.435 189.359 93.8706 180.604 93.8706 169.806V142.743H132.13V169.806C132.13 180.604 123.565 189.359 113 189.359Z" fill="#C18678"/>
<path d="M122.142 142.744V169.806C122.142 178.839 116.149 186.436 108.006 188.682C109.599 189.121 111.272 189.359 113 189.359C123.565 189.359 132.13 180.605 132.13 169.806V142.744H122.142Z" fill="#B46E59"/>
<path d="M145.62 126.536C143.862 125.69 141.994 125.603 140.268 126.725V118.275C140.268 112.1 135.371 107.094 129.33 107.094H96.6713C90.6302 107.094 85.7328 112.1 85.7328 118.275V126.725C84.0074 125.603 82.1389 125.69 80.3808 126.536C77.3898 127.976 75.8502 131.064 78.2329 136.236C80.089 140.264 83.5673 143.909 86.4276 144.643C88.0202 151.927 92.2837 158.412 98.474 162.665L106.398 168.108C110.391 170.851 115.61 170.851 119.602 168.108L127.527 162.665C133.718 158.411 137.981 151.927 139.573 144.643C142.434 143.91 145.912 140.265 147.768 136.236C150.151 131.064 148.611 127.976 145.62 126.536Z" fill="#C18678"/>
<path d="M145.62 126.537C143.862 125.69 141.993 125.604 140.268 126.725V118.275C140.268 112.1 135.371 107.094 129.33 107.094H126.55V138.22C126.55 148.029 121.773 157.193 113.809 162.665L106.141 167.933L106.399 168.11C110.391 170.852 115.609 170.852 119.601 168.109L127.526 162.665C133.717 158.411 137.98 151.927 139.573 144.643C142.434 143.91 145.911 140.265 147.768 136.236C150.151 131.065 148.611 127.976 145.62 126.537Z" fill="#B46E59"/>
<path d="M187.62 47.5405H153.106C147.533 47.5405 143.016 52.1578 143.016 57.8534V73.782C143.016 83.6189 147.807 92.8098 155.794 98.2974L163.741 103.757C167.745 106.508 172.98 106.508 176.984 103.757L184.931 98.2974C192.918 92.8102 197.709 83.6189 197.709 73.782V57.8534C197.709 52.1578 193.192 47.5405 187.62 47.5405Z" fill="#FFCBBE"/>
<path d="M187.62 47.5405H186.549V71.3371C186.549 81.1736 181.758 90.3649 173.771 95.8525L165.823 101.313C164.781 102.029 163.655 102.554 162.489 102.897L163.742 103.757C167.746 106.508 172.98 106.509 176.984 103.758C179.384 102.109 182.182 100.186 184.933 98.2974C192.92 92.8102 197.71 83.6194 197.71 73.7829C197.71 68.4559 197.71 62.6471 197.71 57.8516C197.71 52.1551 193.192 47.5405 187.62 47.5405Z" fill="#EAAC9D"/>
<path d="M218.606 121.913V64.6507C218.606 37.505 197 15.4202 170.441 15.4202C148.257 15.4202 129.532 30.8304 123.964 51.7269C115.743 50.4843 107.203 50.6517 99.0626 52.2367C97.2824 52.5832 96.114 54.3392 96.453 56.1592C96.7841 57.99 98.5537 59.1784 100.291 58.8265C107.602 57.4035 115.279 57.2348 122.674 58.3149C122.412 60.3898 122.276 62.5045 122.276 64.6511V85.6523C121.959 85.6383 121.641 85.6275 121.321 85.6275H104.678C93.9224 85.6275 84.9288 93.4765 82.8864 103.864C81.2823 103.161 79.6398 102.551 77.9691 102.037V97.3706C81.1879 93.6827 83.5675 89.2833 84.8988 84.4567C88.1126 82.7986 91.3676 79.1698 93.2943 74.9884C95.997 69.2991 95.1107 63.5358 89.5755 60.8257C88.4225 60.2707 87.255 59.9558 86.1073 59.8791V45.6699C86.1073 33.1422 76.136 22.9502 63.8794 22.9502H47.2362C34.9797 22.9502 25.0083 33.1422 25.0083 45.6699V59.8791C23.8602 59.9553 22.6927 60.2703 21.5397 60.8257C16.0041 63.5376 15.1186 69.2973 17.8209 74.9884C19.7472 79.1694 23.0012 82.7977 26.2164 84.4562C27.5482 89.2838 29.9278 93.6831 33.1465 97.371V102.037C13.5481 108.053 0 126.558 0 147.633C0 150.296 2.11963 152.462 4.72481 152.462H43.3739C47.7897 164.89 55.2914 175.882 65.2085 184.445C60.2727 192.055 57.4415 201.137 57.4415 210.75C57.4415 213.413 59.5612 215.579 62.1663 215.579H163.834C166.439 215.579 168.558 213.412 168.558 210.75C168.558 189.676 155.01 171.171 135.411 165.154V160.047C137.4 157.768 139.071 155.219 140.369 152.462H175.61C173.098 158.821 169.674 164.744 165.397 170.118C164.254 171.555 164.466 173.667 165.872 174.837C166.48 175.343 167.213 175.589 167.941 175.589C168.894 175.589 169.84 175.166 170.488 174.351C175.74 167.753 179.816 160.398 182.633 152.462H221.274C223.879 152.462 225.999 150.296 225.999 147.633C226 138.271 223.313 129.404 218.606 121.913ZM128.84 64.6507C128.84 41.2042 147.502 22.1286 170.442 22.1286C193.381 22.1286 212.043 41.2037 212.043 64.6507V113.665C206.774 108.365 200.244 104.311 192.853 102.041V95.6484C198.04 89.6979 200.991 81.9536 200.991 73.7819V57.8529C200.991 50.3174 194.993 44.1864 187.62 44.1864H153.106C145.733 44.1864 139.735 50.3174 139.735 57.8529V73.7819C139.735 82.0366 142.746 89.8559 148.031 95.8298V102.033C146.361 102.547 144.718 103.16 143.113 103.863C141.572 96.0238 136.071 89.6325 128.84 86.9679V64.6507H128.84ZM183.101 95.5131L175.154 100.973C172.244 102.973 168.483 102.973 165.572 100.973L157.625 95.5131C150.532 90.6404 146.298 82.5171 146.298 73.7819V57.8529C146.298 54.0161 149.352 50.8945 153.106 50.8945H187.62C191.374 50.8945 194.428 54.0157 194.428 57.8529V73.7819C194.428 82.5166 190.194 90.6404 183.101 95.5131ZM154.594 101.513L161.911 106.541C164.478 108.304 167.421 109.186 170.363 109.186C173.304 109.186 176.247 108.304 178.814 106.541L186.289 101.405V106.689C186.289 115.62 179.18 122.887 170.441 122.887C161.703 122.887 154.593 115.62 154.593 106.689V101.513H154.594ZM138.948 141.336C137.608 141.804 136.608 142.931 136.27 144.353C134.765 150.715 131.01 156.23 125.696 159.88L117.772 165.324C114.873 167.315 111.127 167.315 108.228 165.324L100.304 159.88C94.9906 156.23 91.2356 150.716 89.7295 144.351C89.3923 142.93 88.3907 141.803 87.0528 141.337C85.3869 140.755 82.6908 138.177 81.2002 134.807C79.3971 130.73 82.4498 128.549 83.9714 129.555C84.9778 130.221 86.2631 130.254 87.3115 129.665C88.3611 129.075 89.0135 127.949 89.0135 126.725V118.275C89.0135 113.959 92.4486 110.448 96.6706 110.448H129.329C133.551 110.448 136.986 113.959 136.986 118.275V126.724C136.986 127.948 137.638 129.075 138.688 129.664C139.737 130.254 141.018 130.212 142.028 129.555C144.021 128.7 147.15 129.932 144.799 134.806C143.258 138.153 140.613 140.754 138.948 141.336ZM97.1522 165.798L104.567 170.892C107.128 172.652 110.065 173.532 113 173.532C115.936 173.532 118.872 172.652 121.433 170.892L128.848 165.798V169.806C128.848 178.738 121.739 186.004 113 186.004C104.262 186.004 97.1522 178.738 97.1522 169.806V165.798ZM104.678 92.336H121.321C129.151 92.336 135.658 98.2386 136.806 105.919C134.632 104.54 132.071 103.74 129.329 103.74H96.6706C93.929 103.74 91.3676 104.539 89.1936 105.919C90.3417 98.2382 96.8485 92.336 104.678 92.336ZM39.7107 103.122L47.1259 108.216C49.6873 109.976 52.6227 110.856 55.5585 110.856C58.4938 110.856 61.4305 109.976 63.9911 108.216L71.4067 103.122V107.13C71.4067 116.062 64.297 123.328 55.5585 123.328C46.82 123.328 39.7107 116.062 39.7107 107.13V103.122ZM47.2371 29.6591H63.8803C71.7104 29.6591 78.2168 35.5618 79.3648 43.2421C77.1909 41.8624 74.629 41.0634 71.8874 41.0634H39.2295C36.488 41.0634 33.9265 41.8624 31.7526 43.2421C32.9007 35.5618 39.4074 29.6591 47.2371 29.6591ZM29.6126 78.6609C27.9463 78.0789 25.3014 75.4766 23.7596 72.1307C23.0145 70.5132 22.7439 69.1385 22.9973 68.2587C22.9046 67.3352 25.0092 65.4903 26.5303 66.879C27.4237 67.6947 28.8212 67.577 29.8708 66.9887C30.9201 66.3994 31.5729 65.2729 31.5729 64.0484V55.5984C31.5729 51.2829 35.0079 47.7719 39.23 47.7719H71.8879C76.1099 47.7719 79.5449 51.2829 79.5449 55.5984V64.0484C79.5449 65.2724 80.1973 66.3994 81.247 66.9887C82.2967 67.577 83.7586 67.7629 84.5876 66.879C85.733 65.6577 87.8306 66.9156 88.1206 68.2587C88.3139 69.1543 88.1034 70.5132 87.3583 72.1307C85.8164 75.477 83.1715 78.0789 81.5083 78.66C80.1673 79.1274 79.1662 80.2549 78.829 81.677C77.3242 88.0394 73.5687 93.5537 68.2551 97.2045L60.3305 102.648C57.4322 104.639 53.6865 104.64 50.7873 102.648L42.8632 97.2045C37.5495 93.5537 33.7941 88.039 32.2884 81.6761C31.9521 80.2554 30.9514 79.1283 29.6126 78.6609ZM33.233 109.059C34.1953 120.789 43.8374 130.037 55.5585 130.037C67.2796 130.037 76.9212 120.79 77.8844 109.061C79.4447 109.625 80.9702 110.292 82.4503 111.051V122.556C81.3022 122.632 80.1342 122.947 78.9817 123.502C74.9283 125.454 71.823 130.199 75.2629 137.666C76.7632 140.922 79.07 143.838 81.5357 145.755H6.6052C7.34897 129.082 17.9463 114.57 33.233 109.059ZM50.4011 152.462H85.6319C86.9292 155.219 88.5995 157.768 90.5889 160.047V165.156C82.1378 167.752 74.8117 172.674 69.2112 179.126C60.8964 171.881 54.4691 162.753 50.4011 152.462ZM161.954 208.871H64.0467C64.7923 192.203 75.4094 177.669 90.7072 172.164C91.8664 183.691 101.421 192.713 113 192.713C124.579 192.713 134.135 183.691 135.293 172.163C150.597 177.666 161.21 192.188 161.954 208.871ZM144.465 145.754C146.93 143.838 149.237 140.921 150.737 137.664C154.177 130.198 151.072 125.453 147.018 123.502C145.865 122.947 144.698 122.632 143.55 122.555V111.05C145.04 110.286 146.578 109.616 148.15 109.05C149.31 120.575 158.865 129.596 170.442 129.596C182.02 129.596 191.575 120.575 192.735 109.05C208.028 114.554 218.65 129.097 219.396 145.754H144.465Z" fill="black"/>
<path d="M44.319 70.4622C46.426 70.4622 48.1341 68.7163 48.1341 66.5627C48.1341 64.4091 46.426 62.6632 44.319 62.6632C42.212 62.6632 40.5039 64.4091 40.5039 66.5627C40.5039 68.7163 42.212 70.4622 44.319 70.4622Z" fill="black"/>
<path d="M66.4415 70.4622C68.5486 70.4622 70.2566 68.7163 70.2566 66.5627C70.2566 64.4091 68.5486 62.6632 66.4415 62.6632C64.3345 62.6632 62.6265 64.4091 62.6265 66.5627C62.6265 68.7163 64.3345 70.4622 66.4415 70.4622Z" fill="black"/>
<path d="M46.9892 86.0376C49.0405 88.1279 52.1638 89.3267 55.5583 89.3267C58.9531 89.3267 62.0765 88.1279 64.1277 86.0372C65.4109 84.7292 65.414 82.6051 64.1343 81.2935C62.8547 79.9811 60.7766 79.9788 59.4934 81.2868C58.8909 81.9008 57.4987 82.6182 55.5583 82.6182C53.6183 82.6182 52.2256 81.9008 51.6231 81.2868C50.3395 79.9793 48.2618 79.982 46.9822 81.294C45.7025 82.606 45.7061 84.7297 46.9892 86.0376Z" fill="black"/>
<path d="M101.76 133.139C103.867 133.139 105.575 131.393 105.575 129.239C105.575 127.085 103.867 125.34 101.76 125.34C99.6534 125.34 97.9453 127.085 97.9453 129.239C97.9453 131.393 99.6534 133.139 101.76 133.139Z" fill="black"/>
<path d="M123.883 133.139C125.99 133.139 127.698 131.393 127.698 129.239C127.698 127.085 125.99 125.34 123.883 125.34C121.776 125.34 120.068 127.085 120.068 129.239C120.068 131.393 121.776 133.139 123.883 133.139Z" fill="black"/>
<path d="M116.935 143.963C116.332 144.577 114.94 145.295 113 145.295C111.059 145.295 109.667 144.578 109.065 143.963C107.782 142.656 105.704 142.658 104.424 143.97C103.144 145.282 103.148 147.406 104.431 148.714C106.482 150.804 109.606 152.003 113 152.003C116.394 152.003 119.517 150.804 121.568 148.714C122.852 147.406 122.856 145.282 121.576 143.97C120.296 142.658 118.219 142.654 116.935 143.963Z" fill="black"/>
<path d="M159.202 70.0215C161.309 70.0215 163.017 68.2756 163.017 66.122C163.017 63.9684 161.309 62.2225 159.202 62.2225C157.095 62.2225 155.387 63.9684 155.387 66.122C155.387 68.2756 157.095 70.0215 159.202 70.0215Z" fill="black"/>
<path d="M181.324 70.0215C183.431 70.0215 185.139 68.2756 185.139 66.122C185.139 63.9684 183.431 62.2225 181.324 62.2225C179.217 62.2225 177.509 63.9684 177.509 66.122C177.509 68.2756 179.217 70.0215 181.324 70.0215Z" fill="black"/>
<path d="M174.376 80.8458C173.774 81.4599 172.382 82.1772 170.441 82.1772C168.501 82.1772 167.108 81.4599 166.506 80.8454C165.222 79.5383 163.145 79.5406 161.865 80.8526C160.585 82.1646 160.589 84.2883 161.872 85.5962C163.923 87.6865 167.047 88.8853 170.441 88.8853C173.836 88.8853 176.959 87.6865 179.011 85.5958C180.294 84.2878 180.297 82.1637 179.017 80.8521C177.738 79.5397 175.659 79.5379 174.376 80.8458Z" fill="black"/>
</svg>
