<svg id="Layer_5" enable-background="new 0 0 64 64" height="512" viewBox="0 0 64 64" width="512" xmlns="http://www.w3.org/2000/svg"><g><g><g><path d="m23 40c0-4.42-3.58-8-8-8-1.58 0-3.06.47-4.3 1.26-1.75-3.02-2.7-6.49-2.7-10.08v-.97c0-10.56 8.1-19.23 18.43-20.13.59-.05 1.18-.08 1.78-.08h7.58c11.16 0 20.21 9.05 20.21 20.21v.97c0 3.59-.95 7.06-2.7 10.08-1.24-.79-2.72-1.26-4.3-1.26-4.42 0-8 3.58-8 8 0-1.1-.9-2-2-2h-4-6-4c-1.1 0-2 .9-2 2z" fill="#ccd1d9"/></g><g><path d="m15 32c4.42 0 8 3.58 8 8h-4-2c-2.63-1.76-4.77-4.08-6.3-6.74 1.24-.79 2.72-1.26 4.3-1.26z" fill="#aab2bd"/></g><g><path d="m49 32c1.58 0 3.06.47 4.3 1.26-1.53 2.66-3.67 4.98-6.3 6.74h-2-4c0-4.42 3.58-8 8-8z" fill="#aab2bd"/></g><g><path d="m17 58v-2h2 4c0 1.1.9 2 2 2h4 6 4c1.1 0 2-.9 2-2h4 2v2c0 2.21-1.79 4-4 4h-22c-2.21 0-4-1.79-4-4z" fill="#aab2bd"/></g><g><path d="m50 16.87v.06c0 3.9-3.13 7.07-7 7.07-3.99 0-7.2-3.37-6.99-7.44 0-.01.01-.01.01-.02l8.56-3.24c2.55-.96 5.4.84 5.42 3.57z" fill="#ff826e"/></g><g><path d="m35.82 28.55c.12.3.18.61.18.93 0 1.39-1.13 2.52-2.52 2.52h-2.96c-.7 0-1.32-.28-1.78-.74s-.74-1.08-.74-1.78c0-.32.06-.63.18-.93l1.08-2.69c.45-1.12 1.53-1.86 2.74-1.86s2.29.74 2.74 1.86z" fill="#ff826e"/></g><g><path d="m27.99 16.56c.21 4.07-3 7.44-6.99 7.44-3.87 0-7-3.17-7-7.07 0-.02 0-.04 0-.06.02-2.73 2.87-4.53 5.42-3.57l8.56 3.24c0 .01.01.01.01.02z" fill="#ff826e"/></g><g><path d="m17 40h2v16h-2-3c-1.66 0-3-1.34-3-3v-10c0-1.66 1.34-3 3-3z" fill="#969faa"/></g><g><path d="m47 40h3c1.66 0 3 1.34 3 3v10c0 1.66-1.34 3-3 3h-3-2v-16z" fill="#969faa"/></g><g><path d="m23 40v2h6 6 6v-2h4v16h-4v-2h-6-6-6v2h-4v-16z" fill="#69d6f4"/></g><g><path d="m35 54h-6-6v2c0 1.1.9 2 2 2h4 6 4c1.1 0 2-.9 2-2v-2z" fill="#e6e9ed"/></g><g><path d="m39 38h-4-6-4c-1.1 0-2 .9-2 2v2h6 6 6v-2c0-1.1-.9-2-2-2z" fill="#e6e9ed"/></g></g><g><path d="m57 23.184v-.973c0-11.696-9.515-21.211-21.211-21.211h-7.578c-11.696 0-21.211 9.515-21.211 21.211v.973c0 6.102 2.608 11.823 7.087 15.816h-.087c-2.206 0-4 1.794-4 4v10c0 2.206 1.794 4 4 4h2v1c0 2.757 2.243 5 5 5h22c2.757 0 5-2.243 5-5v-1h2c2.206 0 4-1.794 4-4v-10c0-2.206-1.794-4-4-4h-.087c4.479-3.993 7.087-9.714 7.087-15.816zm-48-.973c0-9.771 7.339-17.845 16.79-19.041l1.533 3.83h4.677l-1.587 2.116-3.656.914.485 1.94 4.344-1.086 2.521-3.362 2.185 2.185 1.414-1.414-3.292-3.293h-5.737l-.793-1.983c.11-.002.217-.017.327-.017h7.578c10.593 0 19.211 8.618 19.211 19.211v.973c0 3.087-.743 6.065-2.099 8.725-1.217-.589-2.544-.909-3.901-.909-4.044 0-7.473 2.682-8.604 6.361-.419-.223-.889-.361-1.396-.361h-14c-.507 0-.977.138-1.396.361-1.131-3.679-4.56-6.361-8.604-6.361-1.357 0-2.684.32-3.901.909-1.356-2.66-2.099-5.638-2.099-8.725zm33 32.789v-2h-20v2h-2v-14h2v2h20v-2h2v14zm-17 2c-.551 0-1-.448-1-1v-1h4v2zm5-2h4v2h-4zm6 0h4v1c0 .552-.449 1-1 1h-3zm3-16c.551 0 1 .448 1 1v1h-4v-2zm-5 2h-4v-2h4zm-6 0h-4v-1c0-.552.449-1 1-1h3zm-15.903-7.363c.91-.418 1.898-.637 2.903-.637 3.519 0 6.432 2.614 6.92 6h-4.601c-2.109-1.452-3.87-3.28-5.222-5.363zm-.097 19.363v-10c0-1.103.897-2 2-2h4v14h-4c-1.103 0-2-.897-2-2zm34 5c0 1.654-1.346 3-3 3h-22c-1.654 0-3-1.346-3-3v-1h4.184c.414 1.161 1.514 2 2.816 2h14c1.302 0 2.402-.839 2.816-2h4.184zm6-15v10c0 1.103-.897 2-2 2h-4v-14h4c1.103 0 2 .897 2 2zm-9.92-4c.488-3.386 3.401-6 6.92-6 1.005 0 1.993.219 2.903.637-1.352 2.083-3.113 3.911-5.222 5.363z"/><path d="m48 46h2v4h-2z"/><path d="m14 45h2v6h-2z"/><path d="m27.251 28.179c-.167.417-.251.856-.251 1.305 0 1.939 1.577 3.516 3.516 3.516h2.969c1.938 0 3.515-1.577 3.515-3.516 0-.449-.084-.888-.251-1.306l-1.078-2.693c-.604-1.509-2.045-2.485-3.671-2.485s-3.067.976-3.671 2.485zm1.857.743 1.078-2.693c.298-.747 1.01-1.229 1.814-1.229s1.516.482 1.814 1.229l1.077 2.693c.072.179.109.369.109.562 0 .836-.68 1.516-1.516 1.516h-2.969c-.835 0-1.515-.68-1.515-1.516 0-.193.037-.383.108-.562z"/><path d="m43 25c4.411 0 8-3.621 8-8.136-.013-1.587-.785-3.021-2.117-3.934-1.371-.939-3.113-1.149-4.66-.563l-8.558 3.241-.266.11-.373.466-.016.322c-.114 2.252.672 4.386 2.215 6.009 1.524 1.602 3.575 2.485 5.775 2.485zm1.931-10.763c.936-.352 1.99-.226 2.822.344.785.538 1.24 1.375 1.247 2.349 0 3.347-2.691 6.07-6 6.07-1.647 0-3.183-.662-4.325-1.863-1.016-1.069-1.597-2.435-1.667-3.899z"/><path d="m21 25c2.2 0 4.251-.883 5.774-2.485 1.542-1.623 2.329-3.756 2.215-6.009l-.021-.291-.345-.499-8.846-3.35c-1.545-.585-3.288-.375-4.66.563-1.333.913-2.104 2.346-2.117 3.999 0 4.451 3.589 8.072 8 8.072zm-4.753-10.419c.521-.357 1.131-.541 1.743-.541.365 0 .73.065 1.079.197l7.923 3.001c-.071 1.464-.651 2.83-1.667 3.899-1.142 1.201-2.678 1.863-4.325 1.863-3.309 0-6-2.723-6-6.12.007-.924.462-1.762 1.247-2.299z"/></g></g></svg>