<svg id="Layer_5" enable-background="new 0 0 64 64" height="512" viewBox="0 0 64 64" width="512" xmlns="http://www.w3.org/2000/svg"><g><g><g><path d="m38 62h-36c0-1.89.89-3.67 2.4-4.8l.25-.19c.13-.1.26-.19.4-.27v-.01c.79-.49 1.69-.8 2.63-.89l19.32-1.84c1.28 1.28 3.02 2 4.83 2h2.17v2c0 2.21 1.79 4 4 4z" fill="#ff826e"/></g><g><path d="m23.39 19.35c-4.26 1.14-7.39 5.03-7.39 9.65v6c0 4.42 1.79 8.42 4.68 11.32 1.93 1.92 4.34 3.35 7.04 4.1l-.72 3.58-19.32 1.84c-.94.09-1.84.4-2.63.89-.03-.24-.05-.48-.05-.73 0-1.04.31-2 .85-2.8 2.52-3.72 4.15-7.97 4.15-12.46v-16.74c0-6.08 2.46-11.58 6.44-15.56s9.48-6.44 15.56-6.44c9.33 0 17.3 5.81 20.5 14h-.5-8-6c-2.21 0-4 1.79-4 4v2h-6.53c-1.23 0-2.35-.5-3.16-1.31-.38-.38-.7-.84-.92-1.34z" fill="#b27946"/></g><g><path d="m34 54v2h-2.17c-1.81 0-3.55-.72-4.83-2l.72-3.58c1.36.38 2.8.58 4.28.58.67 0 1.33-.04 1.98-.12h.02z" fill="#f0d0b4"/></g><g><path d="m38 62c-2.21 0-4-1.79-4-4v-2-2h28v4c0 2.21-1.79 4-4 4h-19z" fill="#969faa"/></g><g><path d="m48 24h-14v-2-2c0-2.21 1.79-4 4-4h6v4c0 2.21 1.79 4 4 4z" fill="#969faa"/></g><g><path d="m58 16c2.21 0 4 1.79 4 4v4h-14c1.1 0 2.1-.45 2.83-1.17.72-.73 1.17-1.73 1.17-2.83v-4h.5z" fill="#969faa"/></g><g><path d="m44 16h8v4c0 1.1-.45 2.1-1.17 2.83-.73.72-1.73 1.17-2.83 1.17-2.21 0-4-1.79-4-4z" fill="#fcd770"/></g><g><path d="m16 35v-6c0-4.62 3.13-8.51 7.39-9.65.22.5.54.96.92 1.34.81.81 1.93 1.31 3.16 1.31h6.53v2 26.88h-.02c-.65.08-1.31.12-1.98.12-1.48 0-2.92-.2-4.28-.58-2.7-.75-5.11-2.18-7.04-4.1-2.89-2.9-4.68-6.9-4.68-11.32z" fill="#f0d0b4"/></g><g><path d="m25 27c1.92 0 3.76.76 5.12 2.12l.88.88-.88.88c-1.36 1.36-3.2 2.12-5.12 2.12s-3.76-.76-5.12-2.12l-.88-.88.88-.88c1.36-1.36 3.2-2.12 5.12-2.12z" fill="#e6e9ed"/></g><g><circle cx="25" cy="30" fill="#69d6f4" r="2"/></g><g><path d="m62 24v30h-28v-3.12-26.88h14z" fill="#69d6f4"/></g><g><path d="m48 44h10v4h-10z" fill="#b4dd7f"/></g><g><path d="m48 36h10v4h-10z" fill="#b4dd7f"/></g><g><path d="m38 28h10v4h-10z" fill="#ff826e"/></g></g><g><path d="m58 15h-4.845c-3.621-8.523-11.841-14-21.155-14-12.682 0-23 10.317-23 23v16.736c0 3.998-1.337 8.005-3.975 11.908-.671.995-1.025 2.155-1.025 3.356 0 .08.014.157.017.237l-.217.163c-1.753 1.315-2.8 3.409-2.8 5.6v1h37 1 19c2.757 0 5-2.243 5-5v-38c0-2.757-2.243-5-5-5zm3 5v3h-9.026c.635-.838 1.026-1.87 1.026-3v-3h5c1.654 0 3 1.346 3 3zm-33.531 3h5.531v18.08c-.329-.046-.661-.08-1-.08-3.309 0-6 2.243-6 5h2c0-1.654 1.794-3 4-3 .342 0 .674.043 1 .107v6.858c-.332.022-.666.035-1 .035-8.271 0-15-6.729-15-15v-6c0-3.8 2.395-7.173 5.91-8.455.98 1.477 2.657 2.455 4.559 2.455zm20.531 0c-1.654 0-3-1.346-3-3v-3h6v3c0 1.654-1.346 3-3 3zm-3.974 0h-9.026v-3c0-1.654 1.346-3 3-3h5v3c0 1.13.391 2.162 1.026 3zm-15.533 28.632c1.133.239 2.305.368 3.507.368.334 0 .668-.011 1-.031v3.031h-1.171c-1.382 0-2.69-.48-3.737-1.358zm6.507-26.632h26v28h-26zm-24 15.736v-16.736c0-11.579 9.42-21 21-21 8.218 0 15.511 4.664 18.976 12h-12.976c-2.757 0-5 2.243-5 5v1h-5.531c-1.913 0-3.469-1.557-3.469-3.47 0-1.212.646-2.352 1.685-2.975l2.83-1.698-1.029-1.715-2.83 1.698c-1.638.983-2.656 2.78-2.656 4.69 0 .403.047.795.13 1.174-4.244 1.595-7.13 5.688-7.13 10.296v6c0 7.471 4.85 13.817 11.562 16.092l-.397 1.983-18.579 1.77c-.51.048-1.005.167-1.488.324.106-.499.296-.976.585-1.405 2.864-4.24 4.317-8.622 4.317-13.028zm-6 17.264.249-.188c.737-.552 1.611-.89 2.526-.978l18.881-1.798c1.432 1.266 3.247 1.964 5.173 1.964h1.171v1c0 1.13.391 2.162 1.026 3h-30.924c.245-1.186.917-2.264 1.898-3zm53 3h-19-1c-1.654 0-3-1.346-3-3v-3h26v3c0 1.654-1.346 3-3 3z"/><circle cx="48" cy="20" r="1"/><circle cx="58" cy="20" r="1"/><path d="m44 57h8v2h-8z"/><path d="m37 57h2v2h-2z"/><path d="m57 57h2v2h-2z"/><path d="m17.586 30 1.586 1.586c1.556 1.557 3.626 2.414 5.828 2.414s4.272-.857 5.828-2.414l1.586-1.586-1.586-1.586c-1.556-1.557-3.626-2.414-5.828-2.414s-4.272.857-5.828 2.414zm7.414-1c.551 0 1 .448 1 1s-.449 1-1 1-1-.448-1-1 .449-1 1-1zm4.586 1-.172.172c-.525.525-1.131.939-1.785 1.243.229-.423.371-.901.371-1.415s-.142-.992-.371-1.415c.654.304 1.26.718 1.785 1.243zm-9-.172c.525-.525 1.131-.939 1.785-1.243-.229.423-.371.901-.371 1.415s.142.992.371 1.415c-.654-.304-1.26-.718-1.785-1.243l-.172-.172z"/><path d="m49 27h-12v6h12zm-2 4h-8v-2h8z"/><path d="m47 35v6h12v-6zm10 4h-8v-2h8z"/><path d="m47 49h12v-6h-12zm2-4h8v2h-8z"/></g></g></svg>