<svg width="220" height="220" viewBox="0 0 211 211" fill="none" xmlns="http://www.w3.org/2000/svg">
<g clip-path="url(#clip0)">
<path d="M196.933 42.2C189.176 42.2 182.867 48.509 182.867 56.2665C182.867 64.0241 189.176 70.3331 196.933 70.3331C204.691 70.3331 211 64.0245 211 56.2665C211 48.509 204.691 42.2 196.933 42.2ZM196.933 63.3C193.055 63.3 189.9 60.1457 189.9 56.2665C189.9 52.3878 193.054 49.2331 196.933 49.2331C200.813 49.2331 203.967 52.3874 203.967 56.2665C203.967 60.1457 200.812 63.3 196.933 63.3Z" fill="black"/>
<path d="M14.0665 158.25C6.30898 158.25 0 164.559 0 172.317C0 180.074 6.30898 186.383 14.0665 186.383C21.8245 186.383 28.1331 180.074 28.1331 172.317C28.1331 164.559 21.8245 158.25 14.0665 158.25ZM14.0665 179.35C10.1878 179.35 7.03306 176.196 7.03306 172.317C7.03306 168.437 10.1873 165.283 14.0665 165.283C17.9453 165.283 21.1 168.437 21.1 172.317C21.1 176.196 17.9457 179.35 14.0665 179.35Z" fill="black"/>
<path d="M190.115 46.6451L159.776 31.9983C158.025 31.1506 155.926 31.8891 155.082 33.6372C154.238 35.385 154.973 37.488 156.721 38.332L187.059 52.9788C187.551 53.2178 188.072 53.3303 188.585 53.3303C189.893 53.3303 191.149 52.5988 191.753 51.3398C192.597 49.5921 191.863 47.4891 190.115 46.6451Z" fill="black"/>
<path d="M158.25 182.867C150.492 182.867 144.184 189.176 144.184 196.933C144.184 204.691 150.492 211 158.25 211C166.008 211 172.317 204.691 172.317 196.933C172.317 189.176 166.008 182.867 158.25 182.867ZM158.25 203.967C154.371 203.967 151.217 200.812 151.217 196.933C151.217 193.054 154.371 189.9 158.25 189.9C162.129 189.9 165.284 193.054 165.284 196.933C165.284 200.813 162.129 203.967 158.25 203.967Z" fill="black"/>
<path d="M151.431 187.312L121.093 172.665C119.341 171.818 117.242 172.553 116.398 174.304C115.554 176.052 116.289 178.155 118.037 178.999L148.375 193.646C148.868 193.885 149.388 193.997 149.901 193.997C151.209 193.997 152.465 193.266 153.07 192.007C153.914 190.259 153.179 188.156 151.431 187.312Z" fill="black"/>
<path d="M105.5 94.95C97.7422 94.95 91.4336 101.259 91.4336 109.016C91.4336 116.774 97.7426 123.083 105.5 123.083C113.258 123.083 119.567 116.774 119.567 109.016C119.567 101.259 113.258 94.95 105.5 94.95ZM105.5 116.05C101.621 116.05 98.4667 112.896 98.4667 109.016C98.4667 105.138 101.621 101.983 105.5 101.983C109.379 101.983 112.534 105.137 112.534 109.016C112.534 112.896 109.379 116.05 105.5 116.05Z" fill="black"/>
<path d="M99.3174 99.789L76.0126 81.6252C74.4791 80.44 72.2711 80.7038 71.0751 82.2372C69.8829 83.7707 70.1536 85.9788 71.6871 87.1747L94.9919 105.338C95.6356 105.838 96.3951 106.081 97.1513 106.081C98.1993 106.081 99.2333 105.617 99.9294 104.727C101.122 103.193 100.851 100.984 99.3174 99.789Z" fill="black"/>
<path d="M168.8 91.4335C147.471 91.4335 130.117 108.788 130.117 130.117C130.117 151.446 147.471 168.8 168.8 168.8C190.129 168.8 207.484 151.446 207.484 130.117C207.484 108.788 190.129 91.4335 168.8 91.4335ZM168.8 161.767C151.347 161.767 137.15 147.57 137.15 130.117C137.15 112.663 151.347 98.4666 168.8 98.4666C186.253 98.4666 200.45 112.663 200.45 130.117C200.45 147.57 186.253 161.767 168.8 161.767Z" fill="black"/>
<path d="M168.8 105.5C161.042 105.5 154.733 111.809 154.733 119.567C154.733 127.324 161.042 133.633 168.8 133.633C176.558 133.633 182.866 127.324 182.866 119.567C182.866 111.809 176.558 105.5 168.8 105.5ZM168.8 126.6C164.921 126.6 161.766 123.446 161.766 119.567C161.766 115.688 164.921 112.533 168.8 112.533C172.679 112.533 175.833 115.687 175.833 119.567C175.833 123.446 172.679 126.6 168.8 126.6Z" fill="black"/>
<path d="M179.002 140.667H158.598C152.588 140.667 147.7 145.425 147.7 151.269V160.539C147.7 161.795 148.368 162.955 149.455 163.585C155.349 166.996 162.037 168.8 168.8 168.8C175.563 168.8 182.251 166.996 188.145 163.585C189.232 162.959 189.9 161.795 189.9 160.543V151.273C189.9 145.425 185.012 140.667 179.002 140.667ZM182.866 158.443C174.114 162.804 163.486 162.804 154.733 158.443V151.273C154.733 149.303 156.467 147.7 158.598 147.7H179.001C181.132 147.7 182.866 149.303 182.866 151.273V158.443H182.866Z" fill="black"/>
<path d="M84.4 133.633C63.0713 133.633 45.7166 150.988 45.7166 172.317C45.7166 193.646 63.0713 211 84.4 211C105.729 211 123.083 193.645 123.083 172.317C123.083 150.988 105.729 133.633 84.4 133.633ZM84.4 203.967C66.9468 203.967 52.75 189.77 52.75 172.317C52.75 154.863 66.9468 140.667 84.4 140.667C101.853 140.667 116.05 154.863 116.05 172.317C116.05 189.77 101.853 203.967 84.4 203.967Z" fill="black"/>
<path d="M84.4 147.7C76.6421 147.7 70.3335 154.009 70.3335 161.766C70.3335 169.524 76.6425 175.833 84.4 175.833C92.1576 175.833 98.4666 169.524 98.4666 161.766C98.4666 154.009 92.158 147.7 84.4 147.7ZM84.4 168.8C80.5213 168.8 77.3666 165.646 77.3666 161.766C77.3666 157.888 80.5208 154.733 84.4 154.733C88.2788 154.733 91.4335 157.887 91.4335 161.766C91.4335 165.646 88.2788 168.8 84.4 168.8Z" fill="black"/>
<path d="M94.6018 182.867H74.1983C68.1885 182.867 63.3 187.625 63.3 193.469V202.739C63.3 203.995 63.9681 205.155 65.0548 205.785C70.9488 209.196 77.6373 211 84.4 211C91.1628 211 97.8513 209.196 103.745 205.785C104.832 205.159 105.5 203.995 105.5 202.743V193.473C105.5 187.625 100.612 182.867 94.6018 182.867ZM98.4666 200.643C89.7134 205.004 79.0863 205.004 70.3331 200.643V193.473C70.3331 191.504 72.0669 189.9 74.1979 189.9H94.6014C96.7324 189.9 98.4662 191.504 98.4662 193.473V200.643H98.4666Z" fill="black"/>
<path d="M38.6835 45.7166C17.3547 45.7166 0 63.0713 0 84.4C0 105.729 17.3547 123.083 38.6835 123.083C60.0122 123.083 77.3669 105.729 77.3669 84.4C77.3665 63.0713 60.0118 45.7166 38.6835 45.7166ZM38.6835 116.05C21.2302 116.05 7.03347 101.853 7.03347 84.4C7.03347 66.9468 21.2302 52.75 38.6835 52.75C56.1367 52.75 70.3335 66.9468 70.3335 84.4C70.3335 101.853 56.1367 116.05 38.6835 116.05Z" fill="black"/>
<path d="M38.6835 59.7834C30.9255 59.7834 24.6169 66.0924 24.6169 73.85C24.6169 81.6075 30.9259 87.9165 38.6835 87.9165C46.4414 87.9165 52.75 81.6075 52.75 73.85C52.75 66.0924 46.441 59.7834 38.6835 59.7834ZM38.6835 80.8834C34.8047 80.8834 31.65 77.7292 31.65 73.85C31.65 69.9708 34.8043 66.8165 38.6835 66.8165C42.5622 66.8165 45.7169 69.9708 45.7169 73.85C45.7169 77.7292 42.5622 80.8834 38.6835 80.8834Z" fill="black"/>
<path d="M57.7792 117.435L57.7783 117.435C51.9598 120.803 45.3575 122.583 38.6835 122.583C32.0094 122.583 25.4072 120.803 19.5887 117.435C18.6566 116.895 18.0835 115.9 18.0835 114.823V105.553C18.0835 99.9971 22.7351 95.45 28.4817 95.45H48.8853C54.6318 95.45 59.2835 99.997 59.2835 105.556V114.826C59.2835 115.9 58.71 116.899 57.7792 117.435ZM52.973 113.174L52.8677 112.727H53.2496V105.556C53.2496 103.275 51.2544 101.483 48.8849 101.483H28.4813C26.1118 101.483 24.1166 103.275 24.1166 105.556V112.727V113.036L24.3936 113.174C33.2872 117.605 44.0798 117.605 52.973 113.174Z" fill="black" stroke="black"/>
<path d="M123.083 0C101.755 0 84.3999 17.3547 84.3999 38.6835C84.3999 60.0122 101.755 77.3669 123.083 77.3669C144.412 77.3669 161.767 60.0122 161.767 38.6835C161.766 17.3547 144.412 0 123.083 0ZM123.083 70.3335C105.63 70.3335 91.4334 56.1367 91.4334 38.6835C91.4334 21.2302 105.63 7.03347 123.083 7.03347C140.537 7.03347 154.733 21.2302 154.733 38.6835C154.733 56.1367 140.537 70.3335 123.083 70.3335Z" fill="black"/>
<path d="M123.084 14.0665C115.326 14.0665 109.017 20.3755 109.017 28.133C109.017 35.8905 115.326 42.1995 123.084 42.1995C130.841 42.1995 137.15 35.891 137.15 28.1334C137.15 20.3759 130.841 14.0665 123.084 14.0665ZM123.084 35.1665C119.205 35.1665 116.05 32.0122 116.05 28.133C116.05 24.2542 119.204 21.0995 123.084 21.0995C126.963 21.0995 130.117 24.2538 130.117 28.133C130.117 32.0122 126.962 35.1665 123.084 35.1665Z" fill="black"/>
<path d="M133.285 49.2335H112.882C106.872 49.2335 101.983 53.9917 101.983 59.8362V69.1062C101.983 70.3615 102.651 71.522 103.738 72.1517C109.632 75.5627 116.321 77.3669 123.083 77.3669C129.846 77.3669 136.535 75.5627 142.429 72.1517C143.515 71.5257 144.183 70.3615 144.183 69.1099V59.8399C144.183 53.9913 139.295 49.2335 133.285 49.2335ZM137.15 67.0102C128.397 71.3707 117.77 71.3707 109.016 67.0102V59.8399C109.016 57.8704 110.75 56.2669 112.881 56.2669H133.285C135.416 56.2669 137.15 57.8704 137.15 59.8399V67.0102H137.15Z" fill="black"/>
<path d="M90.5929 36.3938C89.3306 34.9238 87.1114 34.7478 85.6344 36.0105L61.2639 56.8645C59.7869 58.1268 59.6146 60.346 60.8769 61.823C61.5734 62.6353 62.5579 63.054 63.5494 63.054C64.3584 63.054 65.1707 62.7762 65.8354 62.2063L90.2059 41.3523C91.6833 40.09 91.8556 37.8708 90.5929 36.3938Z" fill="black"/>
<path d="M168.096 92.8437L146.996 64.7102C145.832 63.1524 143.627 62.8462 142.073 64.0067C140.519 65.171 140.206 67.3757 141.37 68.9265L162.47 97.06C163.162 97.9815 164.217 98.4665 165.286 98.4665C166.018 98.4665 166.76 98.2378 167.393 97.763C168.947 96.5992 169.261 94.3945 168.096 92.8437Z" fill="black"/>
<path d="M139.235 141.746C138.071 140.192 135.866 139.879 134.312 141.043L114.668 155.774C113.113 156.938 112.8 159.143 113.964 160.694C114.657 161.615 115.712 162.1 116.781 162.1C117.516 162.1 118.254 161.868 118.888 161.397L138.532 146.666C140.086 145.502 140.399 143.297 139.235 141.746Z" fill="black"/>
<path d="M49.2336 168.8H24.6166C22.6756 168.8 21.1001 170.372 21.1001 172.317C21.1001 174.261 22.6756 175.833 24.6166 175.833H49.2332C51.1742 175.833 52.7497 174.261 52.7497 172.317C52.7497 170.372 51.1746 168.8 49.2336 168.8Z" fill="black"/>
<path d="M38.6836 0C30.9257 0 24.6167 6.30898 24.6167 14.0665C24.6167 21.8245 30.9257 28.1331 38.6832 28.1331C46.4412 28.1331 52.7498 21.8241 52.7498 14.0665C52.7502 6.30898 46.4412 0 38.6836 0ZM38.6836 21.1C34.8049 21.1 31.6502 17.9457 31.6502 14.0665C31.6502 10.1878 34.8045 7.03306 38.6836 7.03306C42.5624 7.03306 45.7171 10.1873 45.7171 14.0665C45.7167 17.9457 42.5624 21.1 38.6836 21.1Z" fill="black"/>
<path d="M38.6835 21.1C36.7425 21.1 35.167 22.6718 35.167 24.6166V49.2331C35.167 51.1778 36.7425 52.7496 38.6835 52.7496C40.6246 52.7496 42.2001 51.1778 42.2001 49.2331V24.6166C42.2001 22.6718 40.6246 21.1 38.6835 21.1Z" fill="black"/>
</g>
<defs>
<clipPath id="clip0">
<rect width="211" height="211" fill="white"/>
</clipPath>
</defs>
</svg>
