<svg width="213" height="213" viewBox="0 0 213 213" fill="none" xmlns="http://www.w3.org/2000/svg">
<g clip-path="url(#clip0)">
<path d="M211.306 76.4799C208.941 65.4126 204.24 55.4582 197.351 46.9149L197.298 46.85C195.865 45.0653 193.258 44.7716 191.465 46.1981C189.666 47.6284 189.368 50.2455 190.797 52.0436L190.857 52.1155C196.937 59.6562 201.079 68.4387 203.17 78.2188C205.279 88.0905 205.178 98.4963 202.867 109.146C198.506 129.246 186.661 148.074 169.516 162.162C152.305 176.305 131.676 184.093 111.43 184.093C100.981 184.093 91.195 182.037 82.3443 177.982C73.6109 173.981 66.1804 168.228 60.2588 160.884C54.3186 153.517 50.2329 144.962 48.0987 135.453H56.6195C58.5428 142.87 61.9321 149.704 66.7358 155.662C77.1919 168.63 93.0646 175.772 111.43 175.772C112.26 175.772 113.09 175.753 113.922 175.724C114.124 175.753 114.325 175.773 114.525 175.773C114.863 175.773 115.195 175.73 115.515 175.651C132.521 174.68 149.675 167.697 164.233 155.734C179.937 142.829 190.77 125.658 194.735 107.382C194.737 107.375 194.738 107.368 194.739 107.361C194.743 107.346 194.745 107.331 194.748 107.315C198.827 88.4383 195.145 70.691 184.379 57.3374C173.936 44.3864 158.092 37.2471 139.757 37.2284C139.738 37.228 139.72 37.228 139.702 37.2276C139.696 37.2276 139.691 37.2276 139.685 37.2276C121.36 37.2276 102.607 44.344 86.8813 57.2658C71.1772 70.1702 60.3445 87.3417 56.3791 105.618C56.3774 105.626 56.3757 105.634 56.3741 105.643C56.3716 105.655 56.3691 105.668 56.3666 105.68C54.7695 113.071 54.3668 120.286 55.1077 127.133H46.765C46.0328 119.589 46.5266 111.789 48.2485 103.854C52.6096 83.7544 64.4535 64.9263 81.5992 50.8375C98.8098 36.6955 119.438 28.9073 139.685 28.9073C147.898 28.9073 155.757 30.1915 163.044 32.7246C165.214 33.4797 167.585 32.3311 168.339 30.1607C169.094 27.9904 167.946 25.6195 165.776 24.8653C157.608 22.0264 148.83 20.5865 139.685 20.5865C118.805 20.5865 97.6274 28.0944 79.6152 41.8033H27.8733C25.5756 41.8033 23.7131 43.6658 23.7131 45.9635C23.7131 48.2612 25.5756 50.1237 27.8733 50.1237H69.8838C54.7654 64.6172 44.3034 82.7954 40.1174 102.089C38.2716 110.595 37.7083 118.983 38.4147 127.133H22.8599C20.5622 127.133 18.6997 128.995 18.6997 131.293C18.6997 133.591 20.5622 135.453 22.8599 135.453H39.5966C39.6673 135.809 39.7335 136.165 39.8092 136.52C42.1742 147.587 46.8756 157.541 53.7823 166.107C60.5197 174.463 68.9636 181.003 78.8793 185.547C88.825 190.103 99.7766 192.413 111.43 192.413C133.598 192.413 156.103 183.953 174.798 168.591C193.386 153.318 206.241 132.833 210.998 110.91C213.561 99.0987 213.665 87.5143 211.306 76.4799ZM63.8873 110.66H68.5662C70.8639 110.66 72.7264 108.798 72.7264 106.5C72.7264 104.202 70.8639 102.34 68.5662 102.34H65.8118C70.1509 87.7793 79.3681 74.2089 92.1639 63.6945C104.901 53.2275 119.748 46.9715 134.479 45.7663L133.858 48.6268C133.371 50.8721 134.796 53.0873 137.041 53.5745C137.339 53.639 137.635 53.6698 137.927 53.6698C139.843 53.6698 141.566 52.3389 141.989 50.3907L143.019 45.6423C157.389 46.4353 169.686 52.3693 177.902 62.56C186.457 73.1705 189.718 87.1931 187.228 102.34H182.549C180.251 102.34 178.389 104.202 178.389 106.5C178.389 108.798 180.251 110.66 182.549 110.66H185.303C180.964 125.221 171.747 138.791 158.951 149.306C147.125 159.023 133.481 165.111 119.801 166.898L120.349 164.373C120.836 162.128 119.41 159.913 117.166 159.426C114.92 158.937 112.704 160.363 112.218 162.609L111.167 167.449C95.4808 167.382 82.0094 161.35 73.2127 150.44C69.6242 145.989 66.9712 140.936 65.2789 135.453H83.0245C85.3221 135.453 87.1846 133.591 87.1846 131.293C87.1846 128.996 85.3221 127.133 83.0245 127.133H63.4938C62.8302 121.881 62.9517 116.351 63.8873 110.66Z" fill="black"/>
<path d="M108.982 124.283C109.912 124.283 110.846 123.973 111.621 123.337L128.199 109.715C128.923 109.12 129.424 108.298 129.623 107.382L137.97 68.913C138.457 66.6678 137.032 64.4525 134.786 63.9653C132.542 63.4778 130.326 64.9034 129.839 67.1487L121.799 104.204L106.339 116.908C104.564 118.366 104.307 120.988 105.766 122.763C106.588 123.764 107.78 124.283 108.982 124.283Z" fill="black"/>
<path d="M4.16016 85.9476H32.5615C34.8592 85.9476 36.7217 84.0851 36.7217 81.7874C36.7217 79.4898 34.8592 77.6273 32.5615 77.6273H4.16016C1.8625 77.6273 0 79.4898 0 81.7874C0 84.0851 1.8625 85.9476 4.16016 85.9476Z" fill="black"/>
<path d="M36.7633 164.991H15.1084C12.8107 164.991 10.9482 166.853 10.9482 169.151C10.9482 171.448 12.8107 173.311 15.1084 173.311H36.7633C39.0609 173.311 40.9234 171.448 40.9234 169.151C40.9234 166.853 39.0609 164.991 36.7633 164.991Z" fill="black"/>
<path d="M8.00005 129.702C6.56854 126.265 1.51562 126.386 0.246351 129.891C-0.354791 131.552 0.204334 133.49 1.60173 134.572C2.95669 135.622 4.84873 135.735 6.3156 134.849C8.04831 133.803 8.77925 131.571 8.00005 129.702Z" fill="black"/>
<path d="M177.294 39.031C178.164 41.1215 180.631 42.1515 182.727 41.2816C184.822 40.4122 185.843 37.9439 184.977 35.8485C184.112 33.7547 181.637 32.7292 179.544 33.5978C177.445 34.469 176.433 36.9322 177.294 39.031Z" fill="black"/>
</g>
<defs>
<clipPath id="clip0">
<rect width="213" height="213" fill="white"/>
</clipPath>
</defs>
</svg>
