<svg id="Layer_1" enable-background="new 0 0 512 512" height="512" viewBox="0 0 512 512" width="512" xmlns="http://www.w3.org/2000/svg"><g><g><g><g><g fill="#354c5b"><path d="m125.78 17.84c0 9.84-8.01 17.84-17.84 17.84h-58.34c-7.67 0-13.92 6.24-13.92 13.91v58.33c0 9.84-8 17.84-17.84 17.84h-.01c-9.84-.01-17.83-8-17.83-17.84v-58.33c0-27.34 22.25-49.59 49.6-49.59h58.34c9.83 0 17.84 8 17.84 17.84z"/><path d="m512 49.59v58.33c0 9.84-8 17.84-17.84 17.84s-17.84-8-17.84-17.84v-58.33c0-7.67-6.25-13.91-13.92-13.91h-58.34c-9.83 0-17.84-8-17.84-17.84s8.01-17.84 17.84-17.84h58.34c27.35 0 49.6 22.25 49.6 49.59z"/><path d="m125.78 494.16c0 9.84-8.01 17.84-17.84 17.84h-58.34c-27.35 0-49.6-22.25-49.6-49.59v-58.33c0-9.84 7.99-17.83 17.83-17.84h.01c9.84 0 17.84 8 17.84 17.84v58.33c0 7.67 6.25 13.91 13.92 13.91h58.34c9.83 0 17.84 8 17.84 17.84z"/><path d="m512 404.08v58.33c0 27.34-22.25 49.59-49.6 49.59h-58.34c-9.83 0-17.84-8-17.84-17.84s8.01-17.84 17.84-17.84h58.34c7.67 0 13.92-6.24 13.92-13.91v-58.33c0-9.84 8-17.84 17.84-17.84s17.84 8 17.84 17.84z"/></g><g fill="#51697a"><path d="m125.78 494.16h-75.49c-17.93 0-32.46-14.53-32.46-32.45v-75.47h.01c9.84 0 17.84 8 17.84 17.84v58.33c0 7.67 6.25 13.91 13.92 13.91h58.34c9.83 0 17.84 8 17.84 17.84z"/><path d="m50.29 17.84h75.49c0 9.84-8.01 17.84-17.84 17.84h-58.34c-7.67 0-13.92 6.24-13.92 13.91v58.33c0 9.84-8 17.84-17.84 17.84h-.01v-75.47c0-17.92 14.53-32.45 32.46-32.45z"/><path d="m494.16 50.29v75.47c-9.84 0-17.84-8-17.84-17.84v-58.33c0-7.67-6.25-13.91-13.92-13.91h-58.34c-9.83 0-17.84-8-17.84-17.84h75.48c17.93 0 32.46 14.53 32.46 32.45z"/><path d="m494.16 386.24v75.47c0 17.92-14.53 32.45-32.46 32.45h-75.48c0-9.84 8.01-17.84 17.84-17.84h58.34c7.67 0 13.92-6.24 13.92-13.91v-58.33c0-9.84 8-17.84 17.84-17.84z"/></g></g></g></g><path d="m467.68 260.78c-.97 1.17-24.05 28.84-61.6 56.88-16.65 12.43-37.72 26-61.8 36.79-26.42 11.84-56.47 20.35-88.28 20.35-60.8 0-115.17-31.08-150.08-57.14-37.55-28.04-60.63-55.71-61.6-56.88-2.3-2.77-2.3-6.79 0-9.56.97-1.17 24.05-28.84 61.6-56.88 34.91-26.06 89.28-57.14 150.08-57.14 31.81 0 61.86 8.51 88.28 20.35 24.08 10.79 45.15 24.36 61.8 36.79 37.55 28.04 60.63 55.71 61.6 56.88 2.3 2.77 2.3 6.79 0 9.56z" fill="#e5f5f9"/><path d="m467.68 260.78c-.97 1.17-24.05 28.84-61.6 56.88-16.65 12.43-37.72 26-61.8 36.79 7.14-6.04 13.76-12.11 19.8-18 37.55-36.58 60.63-72.69 61.6-74.21 2.3-3.62 2.3-8.86 0-12.48-.97-1.52-24.05-37.63-61.6-74.21-6.04-5.89-12.66-11.96-19.8-18 24.08 10.79 45.15 24.36 61.8 36.79 37.55 28.04 60.63 55.71 61.6 56.88 2.3 2.77 2.3 6.79 0 9.56z" fill="#bfd5dd"/><path d="m374.8 256c0 65.61-53.19 118.8-118.8 118.8-5.08 0-10.09-.32-15-.94-58.53-7.37-103.8-57.33-103.8-117.86s45.27-110.49 103.8-117.86c4.91-.62 9.92-.94 15-.94 65.61 0 118.8 53.19 118.8 118.8z" fill="#5cd5ff"/><path d="m374.8 256c0 65.61-53.19 118.8-118.8 118.8-5.08 0-10.09-.32-15-.94 58.53-7.37 103.8-57.33 103.8-117.86s-45.27-110.49-103.8-117.86c4.91-.62 9.92-.94 15-.94 65.61 0 118.8 53.19 118.8 118.8z" fill="#5ab5ff"/><path d="m307.59 256c0 28.49-23.1 51.59-51.59 51.59-4.31 0-8.5-.53-12.5-1.53-22.45-5.59-39.09-25.88-39.09-50.06s16.64-44.47 39.09-50.06c4-1 8.19-1.53 12.5-1.53 28.49 0 51.59 23.1 51.59 51.59z" fill="#51697a"/><path d="m307.59 256c0 28.49-23.1 51.59-51.59 51.59-4.31 0-8.5-.53-12.5-1.53 22.45-5.59 39.09-25.88 39.09-50.06s-16.64-44.47-39.09-50.06c4-1 8.19-1.53 12.5-1.53 28.49 0 51.59 23.1 51.59 51.59z" fill="#354c5b"/><path d="m285.011 193.957c-15.205 0-27.574 12.37-27.574 27.574s12.37 27.574 27.574 27.574 27.574-12.37 27.574-27.574-12.37-27.574-27.574-27.574z" fill="#fff"/></g></svg>