<svg width="304" height="304" viewBox="0 0 304 304" fill="none" xmlns="http://www.w3.org/2000/svg">
<path d="M191.007 123.276H162.805V276.007H191.007V123.276Z" fill="#EBEEF2"/>
<path d="M162.805 154.214C167.311 155.376 172.036 155.994 176.906 155.994C181.775 155.994 186.5 155.376 191.007 154.214V123.275H162.804V154.214H162.805Z" fill="#C9CDD3"/>
<path d="M176.906 139.962C208.011 139.962 233.227 114.746 233.227 83.6409C233.227 52.5355 208.011 27.3196 176.906 27.3196C145.8 27.3196 120.584 52.5355 120.584 83.6409C120.584 114.746 145.8 139.962 176.906 139.962Z" fill="#F4D34C"/>
<path d="M208.403 36.9438C216.091 46.5727 220.686 58.7784 220.686 72.0576C220.686 103.163 195.47 128.379 164.365 128.379C152.697 128.379 141.858 124.831 132.868 118.755C143.188 131.681 159.079 139.963 176.906 139.963C208.012 139.963 233.227 114.747 233.227 83.6417C233.227 64.2035 223.381 47.0655 208.403 36.9438Z" fill="#D6A10D"/>
<path d="M219.828 233.085C219.828 227.188 215.048 222.408 209.151 222.408C215.22 222.408 220.105 217.346 219.816 211.215C219.546 205.473 214.599 201.055 208.85 201.055H155.918C154.155 201.055 153.002 199.179 153.827 197.621C159.355 187.19 162.878 175.163 162.968 163.541C163.024 156.358 157.401 150.238 150.219 150.122C142.962 150.005 137.042 155.854 137.042 163.084C137.042 171.396 133.997 180.94 128.688 189.27C125.342 194.521 121.997 197.865 119.624 199.676C118.46 200.565 117.044 201.053 115.579 201.053H96.6602V284.421H140.227C165.196 292.351 187.651 290.805 211.177 286.068C215.993 285.099 219.693 280.996 219.826 276.086C219.988 270.055 215.148 265.115 209.153 265.115C215.049 265.115 219.829 260.335 219.829 254.438C219.829 248.541 215.049 243.761 209.153 243.761C215.048 243.762 219.828 238.982 219.828 233.085Z" fill="#F6BB93"/>
<path d="M219.828 254.439C219.828 248.542 215.048 243.762 209.151 243.762C215.048 243.762 219.828 238.981 219.828 233.085C219.828 227.188 215.048 222.408 209.151 222.408C215.17 222.408 220.025 217.429 219.822 211.366C219.629 205.566 214.674 201.054 208.872 201.054H190.553C196.303 201.054 201.249 205.473 201.519 211.215C201.723 215.537 199.356 219.327 195.816 221.188C194.831 221.706 194.849 223.118 195.834 223.638C199.222 225.427 201.532 228.986 201.532 233.085C201.532 237.184 199.222 240.743 195.833 242.533C194.841 243.056 194.841 244.467 195.833 244.991C199.222 246.78 201.532 250.339 201.532 254.439C201.532 258.536 199.223 262.095 195.836 263.884C194.859 264.401 194.824 265.815 195.803 266.329C199.289 268.155 201.641 271.852 201.528 276.087C201.396 280.994 197.7 285.098 192.887 286.068C184.305 287.796 175.865 289.099 167.394 289.673C182.154 290.748 196.454 289.033 211.174 286.069C215.99 285.1 219.692 280.998 219.823 276.087C219.986 270.056 215.145 265.116 209.151 265.116C215.048 265.115 219.828 260.335 219.828 254.439Z" fill="#E49775"/>
<path d="M78.3628 198.565V290.677H102.088C105.377 290.677 108.044 288.01 108.044 284.721V204.521C108.044 201.231 105.377 198.565 102.088 198.565H78.3628Z" fill="#EBEEF2"/>
<path d="M102.088 276.183H78.3628V290.677H102.088C105.377 290.677 108.044 288.01 108.044 284.721V270.228C108.043 273.518 105.377 276.183 102.088 276.183Z" fill="#C9CDD3"/>
<path d="M78.3626 196.299V292.943C78.3626 296.59 75.4057 299.547 71.7583 299.547H43.1099V189.695H71.7583C75.4057 189.695 78.3626 192.652 78.3626 196.299Z" fill="#85B4E1"/>
<path d="M71.7583 285.053H43.1099V299.547H71.7583C75.4057 299.547 78.3626 296.59 78.3626 292.943V278.449C78.3626 282.097 75.4057 285.053 71.7583 285.053Z" fill="#3F80C1"/>
<path d="M237.542 32.2543C238.682 32.2543 239.822 31.8197 240.692 30.9499L250.822 20.8199C252.561 19.0808 252.561 16.2611 250.822 14.5226C249.082 12.7835 246.263 12.7835 244.524 14.5226L234.394 24.6526C232.655 26.3916 232.655 29.2114 234.394 30.9499C235.263 31.8197 236.403 32.2543 237.542 32.2543Z" fill="black"/>
<path d="M219.829 24.738C222.289 24.738 224.282 22.7442 224.282 20.2849V4.45312C224.282 1.99381 222.289 0 219.829 0C217.369 0 215.375 1.99381 215.375 4.45312V20.2849C215.375 22.7442 217.369 24.738 219.829 24.738Z" fill="black"/>
<path d="M260.891 41.062H245.059C242.599 41.062 240.605 43.0558 240.605 45.5151C240.605 47.9744 242.599 49.9683 245.059 49.9683H260.89C263.35 49.9683 265.343 47.9744 265.343 45.5151C265.343 43.0558 263.35 41.062 260.891 41.062Z" fill="black"/>
<path d="M237.681 83.6417C237.681 50.1304 210.417 22.8672 176.906 22.8672C143.395 22.8672 116.131 50.1304 116.131 83.6417C116.131 110.686 133.887 133.66 158.353 141.521V147.852C155.952 146.504 153.207 145.718 150.291 145.672C150.194 145.671 150.096 145.67 149.998 145.67C145.401 145.67 141.077 147.438 137.793 150.668C134.438 153.969 132.59 158.379 132.59 163.086C132.59 170.57 129.799 179.241 124.935 186.875C121.399 192.417 118.153 195.199 116.927 196.134C115.86 196.945 115.277 196.464 108.837 196.604C107.018 195.051 104.66 194.113 102.087 194.113H82.5979C81.5796 189.06 77.1063 185.243 71.7578 185.243H43.1094C40.6495 185.243 38.6562 187.237 38.6562 189.696V207.715C38.6562 210.175 40.6495 212.168 43.1094 212.168C45.5693 212.168 47.5625 210.175 47.5625 207.715V194.149H71.7578C72.9441 194.149 73.909 195.114 73.909 196.3V292.944C73.909 294.13 72.9441 295.095 71.7578 295.095H47.5625V225.526C47.5625 223.067 45.5693 221.073 43.1094 221.073C40.6495 221.073 38.6562 223.067 38.6562 225.526V299.547C38.6562 302.006 40.6495 304 43.1094 304H71.7578C77.1063 304 81.5796 300.183 82.5979 295.13H102.087C106.35 295.13 110.023 292.554 111.631 288.877H139.542C149.405 291.95 159.201 293.714 169.465 294.269C169.547 294.273 169.628 294.275 169.709 294.275C172.058 294.275 174.024 292.436 174.152 290.062C174.284 287.606 172.401 285.508 169.945 285.375C160.213 284.849 150.933 283.15 141.572 280.179C141.137 280.041 140.682 279.97 140.225 279.97H112.496V205.509H115.578C117.985 205.509 120.378 204.697 122.322 203.219C124.32 201.695 128.293 198.168 132.444 191.663C138.196 182.635 141.495 172.218 141.495 163.085C141.495 160.785 142.398 158.63 144.037 157.017C145.676 155.405 147.863 154.528 150.147 154.576C154.212 154.64 157.591 157.712 158.352 161.726V167.309C157.653 176.569 154.706 186.453 149.893 195.537C148.77 197.654 148.839 200.147 150.078 202.205C151.322 204.274 153.505 205.509 155.917 205.509H208.85C212.289 205.509 215.213 208.164 215.368 211.421C215.449 213.147 214.84 214.783 213.653 216.025C212.466 217.268 210.866 217.953 209.147 217.953C206.687 217.953 204.694 219.947 204.694 222.406C204.694 224.866 206.687 226.86 209.147 226.86C212.581 226.86 215.375 229.651 215.375 233.082C215.375 236.516 212.581 239.31 209.147 239.31C206.687 239.31 204.694 241.304 204.694 243.764C204.694 246.223 206.687 248.217 209.147 248.217C212.581 248.217 215.375 251.008 215.375 254.439C215.375 257.87 212.581 260.662 209.147 260.662C206.687 260.662 204.694 262.656 204.694 265.115C204.694 267.574 206.687 269.568 209.147 269.568C210.841 269.568 212.426 270.236 213.608 271.45C214.79 272.664 215.416 274.269 215.371 275.969C215.298 278.715 213.163 281.126 210.291 281.703C201.747 283.427 194.167 284.539 187.115 285.103C184.663 285.299 182.834 287.445 183.03 289.897C183.217 292.228 185.166 293.995 187.465 293.995C187.584 293.995 187.704 293.991 187.824 293.981C195.233 293.389 203.158 292.228 212.049 290.435C218.95 289.048 224.092 283.064 224.274 276.207C224.384 272.084 222.862 268.188 219.989 265.238C219.948 265.196 219.906 265.153 219.865 265.112C222.593 262.374 224.282 258.6 224.282 254.44C224.282 250.277 222.591 246.501 219.86 243.764C222.591 241.025 224.282 237.247 224.282 233.083C224.282 228.923 222.593 225.15 219.865 222.412C219.943 222.334 220.02 222.255 220.096 222.175C222.979 219.156 224.46 215.189 224.265 211.004C223.881 202.929 217.11 196.604 208.851 196.604H195.463V141.52C219.927 133.657 237.681 110.684 237.681 83.6417ZM103.591 284.721C103.591 285.55 102.916 286.224 102.088 286.224H82.8158V203.018H102.088C102.917 203.018 103.591 203.692 103.591 204.521V284.721ZM125.037 83.6417C125.037 55.0413 148.305 31.7734 176.906 31.7734C205.506 31.7734 228.774 55.0413 228.774 83.6417C228.774 112.242 205.506 135.51 176.906 135.51C148.305 135.51 125.037 112.242 125.037 83.6417ZM186.556 196.603H167.26C167.26 193.039 167.26 147.217 167.26 143.651C170.402 144.154 173.624 144.416 176.906 144.416C180.189 144.416 183.413 144.154 186.556 143.65V196.603Z" fill="black"/>
<path d="M159.814 70.4086V66.6763C159.814 64.217 157.821 62.2231 155.361 62.2231C152.901 62.2231 150.908 64.217 150.908 66.6763V70.4086C150.908 72.8679 152.901 74.8617 155.361 74.8617C157.821 74.8617 159.814 72.8685 159.814 70.4086Z" fill="black"/>
<path d="M198.45 74.8617C200.91 74.8617 202.903 72.8679 202.903 70.4086V66.6763C202.903 64.217 200.91 62.2231 198.45 62.2231C195.99 62.2231 193.997 64.217 193.997 66.6763V70.4086C193.997 72.8685 195.991 74.8617 198.45 74.8617Z" fill="black"/>
<path d="M201.224 94.6331C201.224 92.1737 199.231 90.1799 196.771 90.1799C194.311 90.1799 192.318 92.1737 192.318 94.6331C192.318 103.131 185.403 110.045 176.906 110.045C168.408 110.045 161.494 103.131 161.494 94.6331C161.494 92.1737 159.5 90.1799 157.041 90.1799C154.581 90.1799 152.587 92.1737 152.587 94.6331C152.587 108.042 163.496 118.951 176.906 118.951C190.315 118.951 201.224 108.042 201.224 94.6331Z" fill="black"/>
</svg>
