<svg id="_x33_0" enable-background="new 0 0 64 64" height="512" viewBox="0 0 64 64" width="512" xmlns="http://www.w3.org/2000/svg"><g><g><g><path d="m34.78 41h-.01c-.26-.5-.44-1.05-.54-1.63l-.23-1.37h-2c-.75-2.25-.94-6.18-.98-8.01v-.01c-1.07-.06-2.05-.59-2.68-1.44l-2.34-.29v6.75.79c0 3.13-1.09 6.13-3.02 8.5v.01c-.84 1.03-1.84 1.94-2.98 2.7-1.14-.76-2.14-1.67-2.98-2.7v-.01c-.55-.67-1.03-1.39-1.43-2.15-1.03-1.92-1.59-4.1-1.59-6.35v-.79-6.75l-3.81.48c-1.44.18-2.82.69-4.03 1.49-2.6 1.74-4.16 4.66-4.16 7.78v24h6 12 12 6v-4.19-14.07-.01c-1.4-.44-2.56-1.43-3.22-2.73z" fill="#4fc1e9"/></g><g><path d="m16.81 33.59 2.19 2.41-1.98 8.29c-.55-.67-1.03-1.39-1.43-2.15-1.03-1.92-1.59-4.1-1.59-6.35v-.79z" fill="#e6e9ed"/></g><g><path d="m26 35v.79c0 3.13-1.09 6.13-3.02 8.5l-1.98-8.29 2.19-2.41z" fill="#e6e9ed"/></g><g><path d="m19 36h2l1.98 8.29v.01c-.84 1.03-1.84 1.94-2.98 2.7-1.14-.76-2.14-1.67-2.98-2.7v-.01z" fill="#fcd770"/></g><g><path d="m23.19 33.59-2.19 2.41h-2l-2.19-2.41 3.19-1.59z" fill="#fcd770"/></g><g><path d="m16.81 33.59-2.81 1.41v-6.75l2-.25 4 4z" fill="#3bafda"/></g><g><path d="m23.19 33.59-3.19-1.59 4-4 2 .25v6.75z" fill="#3bafda"/></g><g><path d="m10 2h13.26c4.27 0 7.74 3.47 7.74 7.74 0 .84-.13 1.66-.4 2.45-.2.62-.43 1.31-.54 1.63-.53-.51-1.26-.82-2.06-.82h-1.13c-.44-1.73-2.01-3-3.87-3h-6c-1.86 0-3.43 1.27-3.87 3h-1.13c-1.03 0-1.93.51-2.47 1.3l-.59-.9c-.61-.91-.94-1.99-.94-3.09 0-.86.2-1.71.59-2.49l.07-.14c-.29-.14-.55-.33-.78-.56-.54-.54-.88-1.29-.88-2.12s.34-1.58.88-2.12 1.29-.88 2.12-.88z" fill="#b27946"/></g><g><path d="m54 62h-16v-4.19c0-2.92.77-5.76 2.19-8.25l.1.32c.46 1.36 1.43 2.48 2.71 3.12l2-5 3 5c2.52-1.89 4-4.85 4-8v-2.82l2.61.48c4.28.77 7.39 4.5 7.39 8.85v10.49z" fill="#ff826e"/></g><g><path d="m45 48-2 5c-1.28-.64-2.25-1.76-2.71-3.12l-.1-.32c.94-1.66 2.17-3.16 3.66-4.43z" fill="#fc6e51"/></g><g><path d="m52 42.18v2.82c0 3.15-1.48 6.11-4 8l-3-5c1.44 0 2.78-.52 3.82-1.4 1.03-.88 1.76-2.11 2-3.53l.18-1.07z" fill="#fc6e51"/></g><g><path d="m39.5 27c-.33 0-.66.07-.96.2l-2.18.93-3.67 1.58c-.46.19-.94.29-1.44.29-.08 0-.16 0-.23-.02-1.07-.06-2.05-.59-2.68-1.44-.14-.17-.25-.35-.35-.55l-.65-1.3c-.22-.46-.34-.95-.34-1.46 0-1.34.83-2.55 2.08-3.03l9.66-3.72c.83-.32 1.72-.48 2.61-.48 2.83 0 5.41 1.65 6.6 4.22l3.22 6.98c.55 1.18.83 2.48.83 3.79 0 1.95-.63 3.86-1.81 5.42l-1.03 1.38-3.16-3.79.21-.21c1.15-1.15 1.79-2.7 1.79-4.32 0-.68-.28-1.3-.72-1.75-.45-.44-1.07-.72-1.75-.72-.94 0-1.79.53-2.21 1.37l-.32.63-1.33-2.66c-.41-.82-1.25-1.34-2.17-1.34z" fill="#656d78"/></g><g><path d="m23.07 24.29.93 3.71-4 4-4-4 .93-3.71c.92.46 1.96.71 3.07.71s2.15-.25 3.07-.71z" fill="#f0d0b4"/></g><g><path d="m28 13c.8 0 1.53.31 2.06.82.58.55.94 1.32.94 2.18 0 .83-.34 1.58-.88 2.12s-1.29.88-2.12.88h-1.07-.01c.06-.33.08-.66.08-1v-4c0-.35-.04-.68-.13-1z" fill="#f0d0b4"/></g><g><path d="m13 18v-4c0-.35.04-.68.13-1 .44-1.73 2.01-3 3.87-3h6c1.86 0 3.43 1.27 3.87 3 .09.32.13.65.13 1v4c0 .34-.02.67-.08 1-.32 2.34-1.81 4.3-3.85 5.29-.92.46-1.96.71-3.07.71s-2.15-.25-3.07-.71c-.7-.34-1.33-.79-1.88-1.34-1.05-1.05-1.76-2.41-1.97-3.95-.06-.33-.08-.66-.08-1z" fill="#f0d0b4"/></g><g><path d="m13 18c0 .34.02.67.08 1h-.01-1.07c-.83 0-1.58-.34-2.12-.88s-.88-1.29-.88-2.12c0-.63.2-1.22.53-1.7.54-.79 1.44-1.3 2.47-1.3h1.13c-.09.32-.13.65-.13 1z" fill="#f0d0b4"/></g><g><path d="m51 42-.18 1.07c-.24 1.42-.97 2.65-2 3.53-1.04.88-2.38 1.4-3.82 1.4l-1.15-2.87-.85-2.13-.83.42c-.77.38-1.62.58-2.48.58-.59 0-1.16-.09-1.69-.27-1.4-.44-2.56-1.43-3.22-2.73h-.01c-.26-.5-.44-1.05-.54-1.63l-.23-1.37h-2c-.75-2.25-.94-6.18-.98-8.01v-.01c.07.02.15.02.23.02.5 0 .98-.1 1.44-.29l3.67-1.58 2.18-.93c.3-.13.63-.2.96-.2.92 0 1.76.52 2.17 1.34l1.33 2.66.32-.63c.42-.84 1.27-1.37 2.21-1.37.68 0 1.3.28 1.75.72.44.45.72 1.07.72 1.75 0 1.62-.64 3.17-1.79 4.32l-.21.21 3.16 3.79z" fill="#f0d0b4"/></g></g><g><circle cx="17" cy="16" r="1"/><circle cx="23" cy="16" r="1"/><path d="m23.789 19.658.105-.211-1.789-.895-.105.212c-.381.762-1.147 1.236-2 1.236s-1.619-.474-2-1.236l-.105-.211-1.789.895.105.211c.722 1.444 2.174 2.341 3.789 2.341s3.067-.897 3.789-2.342z"/><path d="m23 51h2v2h-2z"/><path d="m23 55h2v2h-2z"/><path d="m54.789 41.672-3.252-.591-1.104-1.324.559-.746c1.295-1.727 2.008-3.866 2.008-6.025 0-1.442-.319-2.897-.924-4.208l-3.219-6.974c-1.347-2.918-4.294-4.804-7.507-4.804-1.019 0-2.018.186-2.968.551l-9.656 3.714c-1.631.627-2.726 2.221-2.726 3.967 0 .656.155 1.313.449 1.901l.088.176-1.733-.217-.578-2.313c1.715-1.073 2.991-2.773 3.511-4.78h.263c2.206 0 4-1.794 4-4 0-.901-.31-1.724-.815-2.393l.367-1.099c.297-.892.448-1.821.448-2.763 0-4.822-3.922-8.744-8.744-8.744h-13.256c-2.206 0-4 1.794-4 4 0 1.215.556 2.292 1.415 3.027-.271.73-.415 1.509-.415 2.287 0 1.301.381 2.561 1.103 3.643l.263.394c-.23.504-.366 1.06-.366 1.649 0 2.206 1.794 4 4 4h.263c.519 2.007 1.796 3.708 3.511 4.78l-.578 2.313-5.13.641c-1.586.198-3.128.772-4.457 1.658-2.886 1.924-4.609 5.144-4.609 8.612v24.996h62v-11.489c0-4.835-3.453-8.973-8.211-9.839zm-17.789 19.328h-4v-20h-2v20h-10v-13.506c3.757-2.719 6-7.042 6-11.705v-6.406l.819.102c.596.657 1.367 1.124 2.225 1.353.084 2.181.325 5.43 1.008 7.479l.227.683h1.874l.089.536c.37 2.218 1.824 3.989 3.758 4.864zm-22-25.382 1.582-.791 1.323 1.455-1.322 5.555c-1.013-1.824-1.583-3.891-1.583-6.048zm5-2.5 1.559.78-1.002 1.102h-1.115l-1.002-1.102zm3.418 8.719-1.322-5.555 1.323-1.455 1.581.791v.171c0 2.157-.57 4.224-1.582 6.048zm-3.628-4.837h.42l1.672 7.02c-.564.64-1.185 1.235-1.882 1.756-.696-.521-1.318-1.116-1.882-1.756zm19.145-8.884c.684-.292 1.512.013 1.842.674l2.223 4.445 1.212-2.422c.25-.501.754-.813 1.316-.813.811 0 1.472.661 1.472 1.472 0 1.363-.531 2.645-1.495 3.608l-.858.858 5.291 6.35-.103.615c-.359 2.153-2.065 3.771-4.176 4.053l-1.389-3.474 1.177-.588-.895-1.789-2.831 1.415c-.626.314-1.327.48-2.029.48-1.07 0-2.056-.375-2.837-1.001 2.315-.008 4.361-1.485 5.093-3.682l-1.897-.633c-.462 1.385-1.753 2.316-3.213 2.316h-1.417c-.091-.254-.16-.519-.206-.793l-.368-2.207h-2.095c-.456-1.83-.633-4.411-.703-6.081.352-.061.699-.152 1.032-.295zm.065 16.822c.23.025.456.062.692.062.958 0 1.913-.221 2.779-.628l.199.499c-1.509 1.4-2.743 3.03-3.671 4.821v-4.754zm4.47 1.929.453 1.133-1.397 3.491c-.56-.486-.983-1.111-1.242-1.824.614-1.008 1.349-1.944 2.186-2.8zm7.501-1.3c-.144 2.236-1.117 4.354-2.72 5.907l-1.606-2.676c1.834-.446 3.392-1.618 4.326-3.231zm-21.528-22.435 9.656-3.714c.721-.277 1.478-.418 2.251-.418 2.437 0 4.67 1.43 5.691 3.642l3.219 6.974c.484 1.05.74 2.215.74 3.37 0 1.729-.571 3.442-1.608 4.825l-.275.367-1.781-2.137c1.077-1.278 1.664-2.878 1.664-4.569 0-1.914-1.558-3.472-3.472-3.472-.925 0-1.785.359-2.42.979l-.542-1.083c-.585-1.17-1.76-1.896-3.067-1.896-.466 0-.92.093-1.351.277l-.16.069c-.069-1.855-1.589-3.346-3.46-3.346-1.324 0-2.514.736-3.105 1.919l-.317.633 1.789.895.317-.634c.25-.501.754-.813 1.316-.813.811 0 1.472.661 1.472 1.472 0 .312-.116.602-.297.853l-3.409 1.461c-.331.142-.682.214-1.042.214-1.008 0-1.914-.56-2.365-1.461l-.649-1.299c-.156-.312-.238-.66-.238-1.008 0-.924.58-1.768 1.443-2.1zm-4.443 6.001v4.249l-3.312-1.656 2.673-2.673zm3-11.133v-4c1.103 0 2 .897 2 2s-.897 2-2 2zm-18-2c0-1.103.897-2 2-2v4c-1.103 0-2-.897-2-2zm2.424-4h-.424c-.856 0-1.645.276-2.297.735-.456-.727-.703-1.559-.703-2.421 0-.472.081-.943.225-1.393.251.05.51.079.775.079 2.206 0 4-1.794 4-4h-2c0 1.103-.897 2-2 2s-2-.897-2-2 .897-2 2-2h13.256c3.719 0 6.744 3.025 6.744 6.744 0 .726-.116 1.443-.346 2.131l-.142.426c-.467-.191-.977-.301-1.512-.301h-.424c-.774-1.763-2.531-3-4.576-3h-6c-2.045 0-3.802 1.237-4.576 3zm1.576 6v-4c0-1.654 1.346-3 3-3h6c1.654 0 3 1.346 3 3v4c0 3.309-2.691 6-6 6s-6-2.691-6-6zm6 8c.828 0 1.627-.127 2.379-.361l.514 2.055-2.893 2.892-2.893-2.893.514-2.055c.752.235 1.551.362 2.379.362zm-4.361 3.053 2.673 2.673-3.312 1.656v-4.249zm-12.639 8.951c0-2.798 1.39-5.396 3.718-6.948 1.072-.715 2.316-1.178 3.596-1.338l2.686-.335v6.406c0 4.663 2.243 8.986 6 11.705v13.506h-10v-20h-2v20h-4zm58 22.996h-6v-3.764c0-1.308.309-2.618.895-3.789l-1.789-.895c-.724 1.448-1.106 3.067-1.106 4.684v3.764h-14v-3.19c0-2.079.43-4.099 1.203-5.973.602.858 1.386 1.576 2.349 2.058l.972.486 1.655-4.137 2.533 4.222.888-.666c2.755-2.066 4.4-5.356 4.4-8.8v-1.62l1.431.26c3.806.693 6.569 4.003 6.569 7.871z"/><path d="m40 32h-2c0 1.103-.897 2-2 2h-1v2h1c2.206 0 4-1.794 4-4z"/><path d="m40 9h2v6h-2z"/><path d="m45.964 12.5h7.071v2h-7.071z" transform="matrix(.707 -.707 .707 .707 4.952 38.956)"/><path d="m51 19h6v2h-6z"/></g></g></svg>